<svg width="49" height="50" viewBox="0 0 49 50" fill="none" xmlns="http://www.w3.org/2000/svg">
<g clip-path="url(#clip0_2_797)">
<g clip-path="url(#clip1_2_797)">
<g clip-path="url(#clip2_2_797)">
<path d="M29.1495 43.0432C39.335 43.0432 47.592 34.7862 47.592 24.6007C47.592 14.4152 39.335 6.1582 29.1495 6.1582C18.964 6.1582 10.707 14.4152 10.707 24.6007C10.707 34.7862 18.964 43.0432 29.1495 43.0432Z" fill="black"/>
<path d="M8.46777 26.5042V24.7752H12.3822V26.5042H8.46777ZM16.4781 27.7076H20.6415V29.5334H13.3244V28.0811L17.059 24.5539C17.9166 23.7378 18.0688 23.2399 18.0688 22.7696C18.0688 22.0089 17.5431 21.5662 16.5196 21.5662C15.6897 21.5662 14.9842 21.8844 14.514 22.5345L12.8818 21.4832C13.6287 20.3905 14.9842 19.6851 16.7271 19.6851C18.8848 19.6851 20.3234 20.7916 20.3234 22.5483C20.3234 23.4889 20.0605 24.3464 18.705 25.6051L16.4781 27.7076ZM25.6886 29.6994C23.3095 29.6994 21.539 27.8874 21.539 24.6922C21.539 21.4971 23.3095 19.6851 25.6886 19.6851C28.0815 19.6851 29.8382 21.4971 29.8382 24.6922C29.8382 27.8874 28.0815 29.6994 25.6886 29.6994ZM25.6886 27.8044C26.809 27.8044 27.5836 26.8915 27.5836 24.6922C27.5836 22.493 26.809 21.5801 25.6886 21.5801C24.5821 21.5801 23.8075 22.493 23.8075 24.6922C23.8075 26.8915 24.5821 27.8044 25.6886 27.8044ZM33.1677 25.0795C31.7568 25.0795 30.7609 24.0421 30.7609 22.41C30.7609 20.7778 31.7568 19.7404 33.1677 19.7404C34.5785 19.7404 35.5606 20.764 35.5606 22.41C35.5606 24.056 34.5785 25.0795 33.1677 25.0795ZM32.3239 29.5334L38.9356 19.8511H40.5816L33.9699 29.5334H32.3239ZM33.1677 23.9453C33.7763 23.9453 34.1774 23.4474 34.1774 22.41C34.1774 21.3726 33.7763 20.8746 33.1677 20.8746C32.5729 20.8746 32.1579 21.3864 32.1579 22.41C32.1579 23.4335 32.5729 23.9453 33.1677 23.9453ZM39.7378 29.6441C38.3408 29.6441 37.3449 28.6067 37.3449 26.9745C37.3449 25.3423 38.3408 24.3049 39.7378 24.3049C41.1487 24.3049 42.1446 25.3423 42.1446 26.9745C42.1446 28.6067 41.1487 29.6441 39.7378 29.6441ZM39.7378 28.5098C40.3464 28.5098 40.7476 27.9981 40.7476 26.9745C40.7476 25.9509 40.3464 25.4392 39.7378 25.4392C39.1431 25.4392 38.7281 25.9371 38.7281 26.9745C38.7281 28.0119 39.1431 28.5098 39.7378 28.5098Z" fill="white"/>
<path d="M48.05 24.6017C48.05 37.5882 37.5223 48.1159 24.5358 48.1159C11.5492 48.1159 1.02148 37.5882 1.02148 24.6017C1.02148 11.6151 11.5492 1.0874 24.5358 1.0874C37.5223 1.0874 48.05 11.6151 48.05 24.6017Z" stroke="white" stroke-width="1.84425"/>
</g>
</g>
</g>
<defs>
<clipPath id="clip0_2_797">
<rect width="49" height="50" fill="white" transform="translate(0 -0.00976562)"/>
</clipPath>
<clipPath id="clip1_2_797">
<rect width="49" height="50" fill="white" transform="translate(0 -0.00976562)"/>
</clipPath>
<clipPath id="clip2_2_797">
<rect width="49" height="50" fill="white" transform="translate(0 -0.00976562)"/>
</clipPath>
</defs>
</svg>
