<svg width="100" height="42" viewBox="0 0 100 42" fill="none" xmlns="http://www.w3.org/2000/svg">
<path d="M8.71397 0.840095C9.50178 0.586244 10.7432 0.247776 11.4594 0.134953C12.1756 0.0221304 13.9661 -0.0342809 15.3985 0.0221304C16.8786 0.106747 18.9078 0.41701 20.0537 0.727272C21.1758 1.03753 23.1572 1.94012 24.4703 2.70167C25.7833 3.46322 27.6693 4.8171 28.6481 5.71968C29.8895 6.87611 30.4624 7.58125 30.5102 8.06075C30.5341 8.45563 30.4386 8.93512 30.2715 9.13256C30.1043 9.33 29.794 9.49924 29.603 9.49924C29.412 9.49924 28.4332 8.73768 27.4544 7.8069C26.4756 6.87611 24.8045 5.60685 23.7541 4.98633C22.7037 4.3658 20.9848 3.57605 19.9344 3.20937C18.3587 2.70167 17.4277 2.58885 14.6823 2.58885C12.2949 2.58885 10.8626 2.72988 9.6689 3.06834C8.76171 3.3504 6.54151 4.39401 4.77489 5.38121C3.00828 6.39661 1.31328 7.21458 1.0268 7.21458C0.716452 7.21458 0.382227 6.96073 0.238988 6.65046C0.119622 6.3402 0.000256265 5.91712 0.000256265 5.74788C-0.0236169 5.55044 1.62363 4.47863 3.62898 3.3504C5.63433 2.25038 7.92615 1.09395 8.71397 0.840095Z" fill="white"/>
<path d="M12.6053 5.60685C12.5814 5.18377 12.7724 4.61966 13.035 4.30939C13.4409 3.8299 13.7273 3.77349 15.7566 3.91451C17.2606 3.99913 18.7168 4.30939 20.0537 4.8171C21.1758 5.24018 22.5127 5.8325 23.0379 6.17097C23.5631 6.48123 24.5896 7.21458 25.3058 7.77869C26.022 8.37101 26.977 9.27359 27.4067 9.78129C27.8364 10.3172 28.1706 10.9377 28.1706 11.1634C28.1706 11.389 28.0512 11.7557 27.8841 11.9249C27.717 12.1224 27.4067 12.2916 27.1679 12.2916C26.9292 12.2916 25.9504 11.5865 25.0194 10.7121C24.0644 9.83771 22.5604 8.68127 21.6771 8.17357C20.7699 7.63766 19.3853 7.01714 18.5736 6.79149C17.738 6.56585 16.0669 6.36841 12.653 6.36841L12.6053 5.60685Z" fill="white"/>
<path d="M12.2233 9.33C12.1756 9.01974 12.3188 8.54024 12.5337 8.28639C12.8202 7.89151 13.2976 7.77869 14.4674 7.77869C15.303 7.77869 16.8309 7.97613 17.8574 8.22998C18.8601 8.45563 20.4596 9.10436 21.3668 9.61206C22.2739 10.148 23.6586 11.1634 24.4225 11.8685C25.3536 12.7429 25.7833 13.3352 25.7833 13.7865C25.7833 14.125 25.6639 14.5763 25.4968 14.7455C25.3297 14.9429 25.0194 15.1122 24.7806 15.1122C24.5419 15.1122 23.7541 14.5481 23.0379 13.8429C22.3217 13.1378 21.2235 12.2634 20.6028 11.8967C19.9582 11.53 18.8601 10.9941 18.1439 10.7403C17.4277 10.4864 15.8043 10.1762 14.5629 10.0633C12.5337 9.92232 12.2949 9.83771 12.2233 9.33Z" fill="white"/>
<path d="M10.6238 12.207C11.2923 11.9531 12.1278 11.6993 12.5337 11.6147C12.9395 11.5583 14.0138 11.5583 14.921 11.6429C15.8282 11.7275 17.2367 12.0095 18.0245 12.3198C18.8123 12.6019 20.1015 13.307 20.8893 13.8429C21.6771 14.407 22.5604 15.1404 22.8708 15.4788C23.1572 15.8173 23.396 16.3532 23.396 16.6635C23.396 16.9737 23.2766 17.3968 23.1095 17.5943C22.9424 17.7635 22.6559 17.9327 22.4411 17.9327C22.2501 17.9327 21.2713 17.284 20.2925 16.5224C19.3137 15.7327 17.8097 14.8301 16.9502 14.5198C16.0908 14.2378 14.8494 13.9839 14.2048 13.9839C13.5602 13.9839 12.5337 14.125 11.9368 14.2942C11.34 14.4634 10.3373 14.8583 9.71664 15.1968C9.09594 15.5353 8.57073 15.9583 8.57073 16.0994C8.57073 16.2404 8.97657 16.7199 9.47791 17.143C9.97925 17.5661 10.8148 18.102 11.34 18.3276C11.8652 18.5251 12.9873 18.8071 13.8467 18.9199C14.7061 19.0328 15.5417 19.2866 15.7088 19.4558C15.8759 19.6251 16.0192 20.0482 15.9953 20.3866C15.9953 20.7533 15.8521 21.12 15.7088 21.2328C15.5417 21.3174 14.8255 21.402 14.1571 21.3738C13.4647 21.3456 12.3904 21.1764 11.7697 20.9789C11.1252 20.8097 9.90763 20.2456 9.02432 19.7097C8.11714 19.202 6.92348 18.243 6.32665 17.5661C5.72982 16.9173 5.22848 16.2122 5.25236 16.0147C5.25236 15.8455 5.61046 15.3378 6.0163 14.9429C6.44602 14.5198 7.40094 13.8429 8.11714 13.4198C8.83333 12.9967 9.97925 12.4608 10.6238 12.207Z" fill="white"/>
<path d="M17.3799 20.8097C17.3561 20.3584 17.4277 19.9071 17.547 19.8225C17.6664 19.7097 18.4065 19.6251 19.1943 19.6251C20.006 19.6251 21.2474 19.8225 21.9636 20.0764C22.6798 20.3302 23.7541 20.8097 24.3509 21.1764C24.9477 21.5149 25.9982 22.3328 26.6905 22.9816C27.3589 23.6021 28.0035 24.3354 28.1229 24.5611C28.2184 24.8149 28.1229 25.2098 27.8125 25.5765C27.5499 25.9149 26.6905 26.6201 25.9027 27.156C25.1148 27.6919 23.8257 28.397 23.0379 28.7073C21.9636 29.1586 21.0087 29.2996 19.2182 29.2996C17.3561 29.2996 16.4728 29.1586 15.2791 28.6791C14.4197 28.3124 13.2021 27.6637 12.5337 27.1842C11.8891 26.7047 11.0535 25.9996 10.6716 25.5765C10.3135 25.1816 10.027 24.5611 10.027 24.1944C10.027 23.8559 10.2419 23.4328 10.5045 23.2918C10.8387 23.0944 11.149 23.1226 11.531 23.3482C11.8175 23.5175 12.653 24.138 13.3692 24.7303C14.0854 25.3226 15.1597 25.9996 15.7566 26.2816C16.4966 26.6201 17.5709 26.7611 19.2182 26.7611C21.1519 26.7893 21.8681 26.6765 22.9185 26.1688C23.6347 25.8303 24.3987 25.4072 24.5896 25.2662C24.9 25.0124 24.8284 24.8431 24.2315 24.1944C23.8257 23.7431 22.9185 23.1226 22.2023 22.8123C21.4861 22.4738 20.3641 22.1354 19.6956 22.0226C19.0511 21.9379 18.2632 21.7969 17.9768 21.7123C17.5709 21.6277 17.4277 21.3738 17.3799 20.8097Z" fill="white"/>
<path d="M7.59193 27.156C7.56806 26.7893 7.68742 26.3662 7.87841 26.1688C8.06939 25.9713 8.37974 25.8303 8.5946 25.8303C8.78559 25.8303 9.54953 26.3944 10.2657 27.0996C10.9819 27.7765 12.2472 28.7355 13.0828 29.215C13.8945 29.6663 15.1836 30.2586 15.9237 30.4843C16.6876 30.7099 18.1439 30.9073 21.0087 30.9073V31.8945C21.0087 32.7407 20.9132 32.9099 20.3641 33.0792C19.9821 33.1638 18.7407 33.1638 17.547 33.0792C16.3056 32.9946 14.7778 32.6561 13.9661 32.3176C13.1783 31.9792 11.9368 31.3586 11.2207 30.8791C10.5045 30.4278 9.40629 29.5535 8.78559 28.9329C8.09327 28.256 7.6158 27.5509 7.59193 27.156Z" fill="white"/>
<path d="M5.3001 30.0612C5.27623 29.6663 5.37172 29.1868 5.51496 28.9894V29.0176C5.6582 28.8201 5.96855 28.6509 6.18341 28.6509C6.39827 28.6227 7.32932 29.3278 8.23651 30.2022C9.14369 31.0484 10.5045 32.1202 11.2207 32.5715C11.9368 33.0228 13.0828 33.6151 13.7273 33.8689C14.4197 34.151 16.1147 34.4331 17.7858 34.5459C20.4118 34.6869 20.6506 34.7715 20.7222 35.2792C20.7699 35.5895 20.6028 36.1536 20.3641 36.5203C19.9344 37.1972 19.8866 37.2254 17.547 37.028C16.1863 36.9434 14.4435 36.6049 13.4886 36.2664C12.5814 35.928 11.0058 35.1664 10.027 34.5459C9.04819 33.9536 7.59193 32.8535 6.80411 32.092C5.84919 31.2176 5.34785 30.5125 5.3001 30.0612Z" fill="white"/>
<path d="M2.81729 32.7689C2.79342 32.4022 2.91279 31.9792 3.10377 31.7817C3.29476 31.5843 3.60511 31.4433 3.81997 31.4433C4.01095 31.4433 4.65553 31.9227 5.25236 32.5151C5.84919 33.1074 6.87573 34.01 7.52031 34.5459C8.18876 35.0818 9.47791 35.8997 10.3851 36.4075C11.2923 36.9152 12.7485 37.5357 13.608 37.8177C14.7778 38.2126 16.043 38.3254 18.7407 38.3254C21.4861 38.3536 22.6798 38.2126 23.8734 37.8459C24.7329 37.5639 26.8815 36.5203 28.6481 35.5049C30.4147 34.5177 32.0381 33.6997 32.2291 33.6997C32.42 33.6997 32.7781 33.9254 33.0169 34.2074C33.2556 34.4613 33.4466 34.8843 33.4466 35.11C33.4466 35.392 32.1097 36.2664 29.794 37.5357C27.7886 38.6357 25.6162 39.7639 24.9477 39.9896C24.3032 40.2434 23.0618 40.5819 22.2023 40.7511C21.3429 40.8922 19.7911 41.0332 18.7407 41.0332C17.6903 41.0332 16.1385 40.8922 15.2791 40.7229C14.4197 40.5819 12.7008 40.046 11.4594 39.5383C10.218 39.0588 8.332 38.0152 7.28158 37.2818C6.23116 36.5203 4.79877 35.3356 4.13032 34.6587C3.3425 33.8971 2.84117 33.1638 2.81729 32.7689Z" fill="white"/>
<path d="M49.8063 23.9187C48.5122 25.3823 46.8444 26.1141 44.8029 26.1141C42.7615 26.1141 41.0846 25.3823 39.7722 23.9187C38.4781 22.4552 37.8311 20.4213 37.8311 17.8171V2.74052H40.4831V17.7202C40.4831 19.4636 40.8568 20.8087 41.6041 21.7557C42.3696 22.7027 43.4359 23.1762 44.8029 23.1762C46.17 23.1762 47.2271 22.7027 47.9745 21.7557C48.7218 20.8087 49.0954 19.4636 49.0954 17.7202V2.74052H51.7748V17.8171C51.7748 20.4213 51.1186 22.4552 49.8063 23.9187Z" fill="white"/>
<path d="M58.5837 16.6549V25.6298H56.0137V10.1012H58.529V12.3288C59.4039 10.5425 60.7527 9.64927 62.5754 9.64927C64.0883 9.64927 65.2457 10.2196 66.0477 11.3603C66.8679 12.501 67.278 13.9753 67.278 15.7832V25.6298H64.708V16.2998C64.708 13.6955 63.6873 12.3934 61.6459 12.3934C60.6798 12.3934 59.9234 12.8023 59.3766 13.6202C58.848 14.4165 58.5837 15.4281 58.5837 16.6549Z" fill="white"/>
<path d="M73.9088 25.6298H71.3661V10.1012H73.9088V25.6298ZM71.3114 5.7752C70.9651 5.34475 70.792 4.82821 70.792 4.22558C70.792 3.62294 70.9651 3.1064 71.3114 2.67595C71.676 2.2455 72.1134 2.03027 72.6238 2.03027C73.1341 2.03027 73.5716 2.2455 73.9361 2.67595C74.3007 3.08488 74.483 3.60142 74.483 4.22558C74.483 4.82821 74.3007 5.34475 73.9361 5.7752C73.5716 6.18413 73.1341 6.3886 72.6238 6.3886C72.1134 6.3886 71.676 6.18413 71.3114 5.7752Z" fill="white"/>
<path d="M81.7263 5.19409V10.1012H84.5697V12.8454H81.7263V20.9163C81.7263 21.6481 81.863 22.1862 82.1364 22.5305C82.4281 22.8749 82.902 23.0471 83.5581 23.0471C83.9409 23.0471 84.2781 23.004 84.5697 22.9179V25.5007C84.1323 25.6944 83.549 25.7912 82.8199 25.7912C81.6899 25.7912 80.7967 25.4038 80.1406 24.629C79.4844 23.8542 79.1563 22.7673 79.1563 21.3683V12.8454H76.6409V10.1012H77.3518C78.0262 10.1012 78.5275 9.88602 78.8555 9.45557C79.2019 9.00359 79.375 8.42248 79.375 7.71224V5.19409H81.7263Z" fill="white"/>
<path d="M91.4145 32.1189H88.5984L91.8793 23.9187L86.2198 10.1012H89.1726L93.2737 20.8195L97.2108 10.1012H99.9722L91.4145 32.1189Z" fill="white"/>
<path d="M57.0785 36.8891C57.0785 37.3045 57.1223 37.691 57.2099 38.0487C57.3072 38.3949 57.4434 38.7007 57.6186 38.9661C57.7938 39.2315 58.0127 39.4392 58.2755 39.5892C58.5382 39.7392 58.8399 39.8142 59.1805 39.8142C60.2218 39.8142 60.8738 39.1969 61.1366 37.9622L62.319 38.1353C62.0951 39.0699 61.701 39.768 61.1366 40.2296C60.5819 40.6912 59.9153 40.9219 59.1367 40.9219C58.6015 40.9335 58.1247 40.8296 57.7062 40.6104C57.2975 40.3796 56.9471 40.0738 56.6552 39.693C56.373 39.3007 56.1589 38.8449 56.0129 38.3257C55.8669 37.7949 55.7939 37.2352 55.7939 36.6468C55.7939 35.9775 55.8621 35.3717 55.9983 34.8294C56.1346 34.287 56.3389 33.8255 56.6114 33.4447C56.8839 33.0524 57.2294 32.7524 57.6478 32.5447C58.0663 32.337 58.5577 32.2331 59.1221 32.2331C59.6671 32.2331 60.144 32.3427 60.5527 32.562C60.9614 32.7812 61.2971 33.087 61.5599 33.4793C61.8324 33.8716 62.0367 34.3332 62.173 34.864C62.3092 35.3832 62.3774 35.9487 62.3774 36.5602V36.8891H57.0785ZM61.0928 35.7813C61.0539 35.4467 60.9857 35.1294 60.8884 34.8294C60.7911 34.5294 60.6549 34.2697 60.4797 34.0505C60.3045 33.8313 60.0953 33.6582 59.852 33.5312C59.6087 33.4043 59.3216 33.3409 58.9908 33.3409C58.6988 33.3409 58.4361 33.4101 58.2025 33.5486C57.9787 33.687 57.7841 33.8716 57.6186 34.1024C57.4629 34.3217 57.3364 34.5813 57.2391 34.8813C57.1515 35.1698 57.098 35.4698 57.0785 35.7813H61.0928Z" fill="white"/>
<path d="M70.4432 32.0081C70.4237 31.5581 70.341 31.1715 70.195 30.8484C70.0491 30.5138 69.8544 30.2427 69.6111 30.0349C69.3678 29.8157 69.0856 29.6542 68.7645 29.5503C68.4531 29.4465 68.1173 29.3945 67.7573 29.3945C67.514 29.3945 67.2561 29.4234 66.9836 29.4811C66.7111 29.5388 66.4581 29.6369 66.2246 29.7753C66.0007 29.9138 65.811 30.1042 65.6553 30.3465C65.5093 30.5888 65.4363 30.8888 65.4363 31.2465C65.4363 31.6504 65.5287 31.9793 65.7136 32.2331C65.9083 32.4754 66.1564 32.6774 66.4581 32.8389C66.7695 32.9889 67.1247 33.1158 67.5237 33.2197C67.9227 33.312 68.3266 33.4159 68.7353 33.5312C69.144 33.6351 69.5479 33.7678 69.9469 33.9293C70.3459 34.0793 70.6962 34.2928 70.9979 34.5697C71.3093 34.8351 71.5575 35.1813 71.7423 35.6083C71.937 36.0237 72.0343 36.5544 72.0343 37.2006C72.0343 37.8583 71.9175 38.4295 71.684 38.9142C71.4504 39.3873 71.1439 39.7796 70.7643 40.0911C70.3945 40.4027 69.9712 40.6335 69.4944 40.7835C69.0175 40.945 68.5309 41.0258 68.0346 41.0258C67.4215 41.0258 66.8425 40.945 66.2975 40.7835C65.7623 40.6335 65.2903 40.3911 64.8816 40.0565C64.4729 39.7103 64.1371 39.2661 63.8744 38.7238C63.6214 38.1699 63.4754 37.5006 63.4365 36.716L64.9254 36.5602C64.9643 37.6795 65.2563 38.4872 65.8012 38.9834C66.3462 39.468 67.0712 39.7103 67.9762 39.7103C68.3071 39.7103 68.6234 39.6642 68.9251 39.5719C69.2365 39.4796 69.509 39.3353 69.7425 39.1392C69.9858 38.943 70.1804 38.6891 70.3264 38.3776C70.4724 38.066 70.5454 37.691 70.5454 37.2525C70.5454 36.8256 70.4481 36.4852 70.2534 36.2314C70.0685 35.966 69.8204 35.7525 69.509 35.5909C69.2073 35.4179 68.8569 35.2794 68.4579 35.1755C68.059 35.0717 67.6551 34.9678 67.2464 34.864C66.8376 34.7601 66.4338 34.639 66.0348 34.5005C65.6358 34.362 65.2806 34.1717 64.9692 33.9293C64.6675 33.687 64.4193 33.3812 64.2247 33.012C64.0398 32.6427 63.9474 32.1697 63.9474 31.5927C63.9474 30.9927 64.0544 30.4734 64.2685 30.0349C64.4923 29.5965 64.7794 29.233 65.1297 28.9445C65.4898 28.656 65.8888 28.4426 66.3267 28.3041C66.7744 28.1541 67.222 28.0791 67.6697 28.0791C68.2049 28.0791 68.711 28.1541 69.1878 28.3041C69.6647 28.4541 70.088 28.6849 70.4578 28.9964C70.8276 29.308 71.1341 29.7061 71.3774 30.1907C71.6207 30.6754 71.7813 31.2523 71.8591 31.9216L70.4432 32.0081Z" fill="white"/>
<path d="M73.4939 32.4408H74.6909V40.7142H73.4939V32.4408ZM73.4939 28.3907H74.6909V30.0176H73.4939V28.3907Z" fill="white"/>
<path d="M76.5025 32.4408H77.6119V33.4793H77.641C77.8649 33.1447 78.1422 32.8562 78.4731 32.6139C78.8137 32.36 79.1884 32.2331 79.5971 32.2331C79.782 32.2331 79.9718 32.262 80.1664 32.3197C80.3708 32.3658 80.5654 32.4466 80.7503 32.562C80.9352 32.6658 81.1006 32.8101 81.2466 32.9947C81.4023 33.1793 81.5288 33.4043 81.6261 33.6697C81.7526 33.462 81.8986 33.2716 82.064 33.0985C82.2295 32.9255 82.4047 32.7754 82.5896 32.6485C82.7745 32.5216 82.9642 32.4235 83.1588 32.3543C83.3632 32.2735 83.5578 32.2331 83.7427 32.2331C84.025 32.2331 84.3023 32.2793 84.5748 32.3716C84.8473 32.4524 85.0906 32.6081 85.3047 32.8389C85.5188 33.0581 85.6891 33.3639 85.8156 33.7563C85.9518 34.1486 86.0199 34.6448 86.0199 35.2448V40.7142H84.8229V35.1755C84.8229 34.6563 84.7256 34.2582 84.531 33.9813C84.3364 33.6928 84.025 33.5486 83.5968 33.5486C83.4119 33.5486 83.2172 33.5832 83.0129 33.6524C82.8085 33.7101 82.6187 33.8082 82.4436 33.9466C82.2781 34.0851 82.137 34.264 82.0203 34.4832C81.9132 34.7024 81.8597 34.9678 81.8597 35.2794V40.7142H80.6627V35.1755C80.6627 34.6563 80.5654 34.2582 80.3708 33.9813C80.1761 33.6928 79.8647 33.5486 79.4365 33.5486C79.2516 33.5486 79.057 33.5832 78.8526 33.6524C78.6483 33.7101 78.4585 33.8082 78.2833 33.9466C78.1179 34.0851 77.9768 34.264 77.86 34.4832C77.753 34.7024 77.6994 34.9678 77.6994 35.2794V40.7142H76.5025V32.4408Z" fill="white"/>
</svg>
