<svg width="16" height="17" viewBox="0 0 16 17" fill="none" xmlns="http://www.w3.org/2000/svg">
<g clip-path="url(#clip0_2_3275)">
<path d="M9.68661 7.11309L6.31328 10.4864C5.87995 10.0531 5.61328 9.45975 5.61328 8.79975C5.61328 7.47975 6.67995 6.41309 7.99995 6.41309C8.65995 6.41309 9.25328 6.67975 9.68661 7.11309Z" stroke="#171717" stroke-linecap="round" stroke-linejoin="round"/>
<path d="M11.8799 4.64613C10.7132 3.76613 9.3799 3.28613 7.9999 3.28613C5.64656 3.28613 3.45323 4.6728 1.92656 7.0728C1.32656 8.0128 1.32656 9.5928 1.92656 10.5328C2.45323 11.3595 3.06656 12.0728 3.73323 12.6461" stroke="#171717" stroke-linecap="round" stroke-linejoin="round"/>
<path d="M5.61328 13.8202C6.37328 14.1402 7.17995 14.3136 7.99995 14.3136C10.3533 14.3136 12.5466 12.9269 14.0733 10.5269C14.6733 9.58691 14.6733 8.00691 14.0733 7.06691C13.8533 6.72025 13.6133 6.39358 13.3666 6.08691" stroke="#171717" stroke-linecap="round" stroke-linejoin="round"/>
<path d="M10.34 9.2666C10.1666 10.2066 9.39996 10.9733 8.45996 11.1466" stroke="#171717" stroke-linecap="round" stroke-linejoin="round"/>
<path d="M6.31301 10.4863L1.33301 15.4663" stroke="#171717" stroke-linecap="round" stroke-linejoin="round"/>
<path d="M14.6665 2.13281L9.68652 7.11281" stroke="#171717" stroke-linecap="round" stroke-linejoin="round"/>
</g>
<defs>
<clipPath id="clip0_2_3275">
<rect width="16" height="16" fill="white" transform="translate(0 0.799805)"/>
</clipPath>
</defs>
</svg>
