<svg width="46" height="46" viewBox="0 0 46 46" fill="none" xmlns="http://www.w3.org/2000/svg">
<rect x="0.5" y="0.799805" width="45" height="45" rx="15" fill="black"/>
<g clip-path="url(#clip0_2_3351)">
<path d="M32.7402 22.8698C32.6902 22.3598 32.2602 21.9798 31.7502 21.9798H24.2002C23.6502 21.9798 23.2002 22.4298 23.2002 22.9798V24.6898C23.2002 25.2398 23.6502 25.6898 24.2002 25.6898H28.7102C28.6002 26.6098 28.0002 27.9998 26.6702 28.9298C25.8202 29.5198 24.6902 29.9298 23.2002 29.9298C23.1302 29.9298 23.0702 29.9298 23.0002 29.9198C20.4502 29.8398 18.2902 28.1298 17.5102 25.7798C17.3002 25.1498 17.1802 24.4898 17.1802 23.7998C17.1802 23.1098 17.3002 22.4398 17.5002 21.8198C17.5602 21.6398 17.6302 21.4598 17.7102 21.2798C18.6302 19.2098 20.6402 17.7498 23.0002 17.6798C23.0602 17.6698 23.1302 17.6698 23.2002 17.6698C24.6302 17.6698 25.7002 18.1398 26.4502 18.6598C26.8402 18.9298 27.3602 18.8698 27.7002 18.5398L29.0902 17.1798C29.5302 16.7498 29.4902 16.0198 28.9902 15.6598C27.4002 14.4898 25.4602 13.7998 23.2002 13.7998C23.1302 13.7998 23.0702 13.7998 23.0002 13.8098C19.1702 13.8798 15.8802 16.0998 14.2702 19.3098C13.5902 20.6698 13.2002 22.1898 13.2002 23.7998C13.2002 25.4098 13.5902 26.9298 14.2702 28.2898H14.2802C15.8902 31.4998 19.1802 33.7198 23.0002 33.7898C23.0702 33.7998 23.1302 33.7998 23.2002 33.7998C25.9002 33.7998 28.1702 32.9098 29.8202 31.3798C31.7102 29.6298 32.8002 27.0698 32.8002 24.0198C32.8002 23.5898 32.7802 23.2198 32.7402 22.8698Z" fill="white"/>
</g>
<defs>
<clipPath id="clip0_2_3351">
<rect width="24" height="24" fill="white" transform="translate(11.5 11.7998)"/>
</clipPath>
</defs>
</svg>
