<svg width="45" height="46" viewBox="0 0 45 46" fill="none" xmlns="http://www.w3.org/2000/svg">
<rect y="0.799805" width="45" height="45" rx="15" fill="#010007"/>
<g clip-path="url(#clip0_2_3280)">
<path d="M32.2402 22.8698C32.1902 22.3598 31.7602 21.9798 31.2502 21.9798H23.7002C23.1502 21.9798 22.7002 22.4298 22.7002 22.9798V24.6898C22.7002 25.2398 23.1502 25.6898 23.7002 25.6898H28.2102C28.1002 26.6098 27.5002 27.9998 26.1702 28.9298C25.3202 29.5198 24.1902 29.9298 22.7002 29.9298C22.6302 29.9298 22.5702 29.9298 22.5002 29.9198C19.9502 29.8398 17.7902 28.1298 17.0102 25.7798C16.8002 25.1498 16.6802 24.4898 16.6802 23.7998C16.6802 23.1098 16.8002 22.4398 17.0002 21.8198C17.0602 21.6398 17.1302 21.4598 17.2102 21.2798C18.1302 19.2098 20.1402 17.7498 22.5002 17.6798C22.5602 17.6698 22.6302 17.6698 22.7002 17.6698C24.1302 17.6698 25.2002 18.1398 25.9502 18.6598C26.3402 18.9298 26.8602 18.8698 27.2002 18.5398L28.5902 17.1798C29.0302 16.7498 28.9902 16.0198 28.4902 15.6598C26.9002 14.4898 24.9602 13.7998 22.7002 13.7998C22.6302 13.7998 22.5702 13.7998 22.5002 13.8098C18.6702 13.8798 15.3802 16.0998 13.7702 19.3098C13.0902 20.6698 12.7002 22.1898 12.7002 23.7998C12.7002 25.4098 13.0902 26.9298 13.7702 28.2898H13.7802C15.3902 31.4998 18.6802 33.7198 22.5002 33.7898C22.5702 33.7998 22.6302 33.7998 22.7002 33.7998C25.4002 33.7998 27.6702 32.9098 29.3202 31.3798C31.2102 29.6298 32.3002 27.0698 32.3002 24.0198C32.3002 23.5898 32.2802 23.2198 32.2402 22.8698Z" fill="white"/>
</g>
<defs>
<clipPath id="clip0_2_3280">
<rect width="24" height="24" fill="white" transform="translate(11 11.7998)"/>
</clipPath>
</defs>
</svg>
