<svg width="55" height="49" viewBox="0 0 55 49" fill="none" xmlns="http://www.w3.org/2000/svg">
<g clip-path="url(#clip0_2_812)">
<g clip-path="url(#clip1_2_812)">
<path d="M30.7122 0.971191H12.8405C8.78276 0.971191 6.75389 0.971191 5.20404 1.76086C3.84075 2.45547 2.73237 3.56384 2.03774 4.92709C1.24805 6.47691 1.24805 8.50573 1.24805 12.5634V23.7799C1.24805 25.0263 1.24805 25.6494 1.32455 26.1717C1.78849 29.3389 4.27596 31.8263 7.44326 32.2902C8.75192 32.4819 9.83505 33.4389 9.83505 34.7616V38.5288C9.83505 40.003 9.83505 40.7401 10.1258 41.0793C10.3781 41.3736 10.7563 41.5289 11.1426 41.4968C11.5878 41.4598 12.1058 40.9353 13.1418 39.8864L18.3108 34.6529C19.1441 33.8093 19.5607 33.3874 20.0482 33.0851C20.4804 32.817 20.9522 32.6189 21.4462 32.498C22.0035 32.3617 22.5963 32.3596 23.7821 32.3554L32.7211 32.324C35.755 32.3133 37.272 32.3079 38.4634 31.7952C39.9628 31.15 41.1562 29.9524 41.7962 28.4508C42.3047 27.2576 42.3047 25.7406 42.3047 22.7066V12.5634C42.3047 8.50573 42.3047 6.47691 41.515 4.92709C40.8203 3.56384 39.712 2.45547 38.3487 1.76086C36.7988 0.971191 34.77 0.971191 30.7122 0.971191Z" fill="black"/>
<path d="M8.8252 9.95752H35.0273" stroke="white" stroke-width="1.98501"/>
<path d="M8.8252 16.2168H35.0273" stroke="white" stroke-width="1.98501"/>
<path d="M8.64258 22.9668H21.3218" stroke="white" stroke-width="1.98501"/>
<path d="M39.2835 20.4873H39.2829C31.8429 20.4873 25.8115 26.5187 25.8115 33.9587C25.8115 41.3988 31.8429 47.4301 39.2829 47.4301H39.2835C46.7236 47.4301 52.7549 41.3988 52.7549 33.9587C52.7549 26.5187 46.7236 20.4873 39.2835 20.4873Z" fill="#312D2D"/>
<path d="M39.2835 20.4873H39.2829C31.8429 20.4873 25.8115 26.5187 25.8115 33.9587C25.8115 41.3988 31.8429 47.4301 39.2829 47.4301H39.2835C46.7236 47.4301 52.7549 41.3988 52.7549 33.9587C52.7549 26.5187 46.7236 20.4873 39.2835 20.4873Z" stroke="white" stroke-width="1.58491"/>
<path d="M39.249 41.9868C43.7034 41.9868 47.3144 38.3759 47.3144 33.9216C47.3144 29.4673 43.7034 25.8564 39.249 25.8564C34.7946 25.8564 31.1836 29.4673 31.1836 33.9216C31.1836 38.3759 34.7946 41.9868 39.249 41.9868Z" fill="url(#paint0_radial_2_812)"/>
<path opacity="0.5" d="M39.249 41.9868C43.7034 41.9868 47.3144 38.3759 47.3144 33.9216C47.3144 29.4673 43.7034 25.8564 39.249 25.8564C34.7946 25.8564 31.1836 29.4673 31.1836 33.9216C31.1836 38.3759 34.7946 41.9868 39.249 41.9868Z" fill="url(#paint1_radial_2_812)"/>
<path opacity="0.5" d="M32.7114 35.519C32.7114 35.519 32.0107 34.7276 31.7839 32.5197C31.7688 32.3534 31.547 32.2072 31.3857 32.1265C31.4814 31.7081 31.6075 31.3049 31.7637 30.9117C31.9351 30.8815 32.1771 30.8411 32.5047 30.8058C33.7045 30.6697 35.6805 30.6647 36.5979 30.9419C37.8733 31.325 38.332 31.8594 39.1083 31.8594V32.2778C38.2009 32.2778 38.9571 33.8454 37.7069 35.2367C36.7088 36.3507 33.3415 36.3709 32.7114 35.519Z" fill="url(#paint2_radial_2_812)"/>
<path opacity="0.5" d="M45.7924 35.5204C45.7924 35.5204 46.4931 34.729 46.7199 32.5211C46.7351 32.3548 46.9569 32.2086 47.1182 32.1279C47.0224 31.7095 46.8964 31.3063 46.7401 30.9131C46.5687 30.8829 46.3268 30.8425 45.9991 30.8072C44.7994 30.6711 42.8233 30.6661 41.9059 30.9433C40.6306 31.3264 40.1718 31.8608 39.3955 31.8608V32.2791C40.3029 32.2791 39.5468 33.8468 40.7969 35.2381C41.795 36.3521 45.1623 36.3723 45.7924 35.5204Z" fill="url(#paint3_radial_2_812)"/>
<path d="M42.8138 36.6837C42.7482 36.6736 42.6777 36.6938 42.6323 36.7392C41.7653 37.5507 40.4294 37.9893 39.4213 37.9893H39.2499H39.0785C38.0703 37.9893 36.7345 37.5507 35.8674 36.7392C35.817 36.6938 35.7515 36.6736 35.686 36.6837C35.6154 36.6988 35.5801 36.7745 35.6154 36.835C36.3564 38.1153 37.7225 38.9067 39.2095 38.9067H39.2549H39.3003C40.7873 38.9067 42.1534 38.1153 42.8944 36.835C42.9196 36.7745 42.8843 36.6988 42.8138 36.6837Z" fill="#643800"/>
<path d="M42.8138 36.6837C42.7482 36.6736 42.6777 36.6938 42.6323 36.7392C41.7653 37.5507 40.4294 37.9893 39.4213 37.9893H39.2499H39.0785C38.0703 37.9893 36.7345 37.5507 35.8674 36.7392C35.817 36.6938 35.7515 36.6736 35.686 36.6837C35.6154 36.6988 35.5801 36.7745 35.6154 36.8349C35.6204 36.8501 35.6305 36.8602 35.6406 36.8702C35.7112 36.8299 35.7868 36.7896 35.8624 36.8753C36.6841 37.7977 37.9039 38.3522 39.2095 38.3522H39.2549H39.3003C40.6159 38.3522 41.8409 37.7927 42.6625 36.8551C42.7382 36.7694 42.8087 36.8097 42.8743 36.8551C42.8793 36.845 42.8843 36.84 42.8894 36.8299C42.9196 36.7745 42.8843 36.6988 42.8138 36.6837Z" fill="url(#paint4_linear_2_812)"/>
<path d="M35.3447 30.8027C34.3163 30.727 33.1116 30.6313 32.8746 31.4328C32.6377 32.2342 32.794 33.444 33.3434 34.3463C33.8929 35.2486 36.0706 35.1982 36.8569 34.7193C37.9054 34.0842 37.9962 33.0105 38.0264 32.3603C38.0617 31.4983 36.9275 30.9136 35.3447 30.8027Z" fill="url(#paint5_linear_2_812)"/>
<path d="M43.12 30.8027C44.1484 30.727 45.3532 30.6313 45.5901 31.4328C45.827 32.2342 45.6707 33.444 45.1213 34.3463C44.5718 35.2486 42.3942 35.1982 41.6078 34.7193C40.5593 34.0842 40.4685 33.0105 40.4383 32.3603C40.403 31.4983 41.5372 30.9136 43.12 30.8027Z" fill="url(#paint6_linear_2_812)"/>
<path d="M46.9779 30.5149C46.9779 30.5149 46.7208 30.4141 45.8387 30.3133C44.6389 30.1772 42.6629 30.1721 41.7455 30.4494C40.4701 30.8325 40.0114 31.3668 39.2351 31.3668C38.4588 31.3668 38.0001 30.8325 36.7197 30.4443C35.8073 30.1671 33.8313 30.1721 32.6265 30.3082C31.7494 30.4091 31.4873 30.5099 31.4873 30.5099C31.4873 30.5956 31.4873 30.6964 31.4923 30.8073C31.4923 30.8073 32.0367 30.898 32.0418 30.9484C32.0418 30.9736 31.5074 31.024 31.5074 31.024C31.5175 31.1148 31.5326 31.2105 31.5528 31.3114L31.7645 31.4122C31.9309 31.4878 32.0418 31.6491 32.0569 31.8306C32.2837 34.0384 32.9844 34.9306 32.9844 34.9306C33.6145 35.7775 36.5786 36.0648 37.5767 34.9508C38.8268 33.5545 38.3227 32.2943 39.2301 32.2943C40.1374 32.2943 39.6333 33.5595 40.8835 34.9508C41.8816 36.0648 44.8456 35.7775 45.4757 34.9306C45.4757 34.9306 46.1764 34.0384 46.4032 31.8306C46.4234 31.6491 46.5343 31.4878 46.6956 31.4122L46.9073 31.3114C46.9275 31.2105 46.9426 31.1148 46.9527 31.024C46.9527 31.024 46.4536 30.9736 46.4587 30.9484C46.4637 30.898 46.9729 30.8073 46.9729 30.8073C46.9829 30.6964 46.9829 30.5956 46.9779 30.5149ZM36.8609 34.7139C36.0745 35.1927 33.9019 35.2432 33.3474 34.3409C32.7979 33.4436 32.6416 32.2288 32.8786 31.4273C33.1155 30.6258 34.3203 30.7266 35.3486 30.7972C36.9314 30.9131 38.0656 31.4979 38.0303 32.3548C38.0001 33.0051 37.9094 34.0787 36.8609 34.7139ZM45.1178 34.3409C44.5684 35.2381 42.3907 35.1927 41.6043 34.7139C40.5558 34.0787 40.4651 33.0051 40.4348 32.3548C40.3996 31.4979 41.5338 30.9131 43.1166 30.7972C44.1449 30.7216 45.3497 30.6258 45.5866 31.4273C45.8235 32.2338 45.6723 33.4436 45.1178 34.3409Z" fill="url(#paint7_linear_2_812)"/>
<path d="M35.3447 30.8027C34.3163 30.727 33.1116 30.6313 32.8746 31.4328C32.6377 32.2342 32.794 33.444 33.3434 34.3463C33.8929 35.2486 36.0706 35.1982 36.8569 34.7193C37.9054 34.0842 37.9962 33.0105 38.0264 32.3603C38.0617 31.4983 36.9275 30.9136 35.3447 30.8027Z" fill="url(#paint8_linear_2_812)"/>
<path d="M36.8584 34.7141C36.0721 35.1929 33.8994 35.2433 33.3449 34.341C32.8812 33.5849 32.6997 32.607 32.7955 31.8408C32.7955 31.8459 32.7904 31.8459 32.7904 31.8509C32.7047 32.6776 32.856 33.6504 33.3097 34.4519C33.8692 35.4399 36.0821 35.3845 36.8836 34.8602C37.7053 34.3209 37.917 33.5547 37.9825 32.8792C37.9019 33.4942 37.6549 34.2301 36.8584 34.7141Z" fill="url(#paint9_linear_2_812)"/>
<path opacity="0.75" d="M39.7326 32.2945C39.7477 32.0324 39.8082 31.7702 39.9141 31.5333L40.0804 31.1553C39.8032 31.2813 39.541 31.367 39.2335 31.367C38.926 31.367 38.6639 31.2813 38.3867 31.1553L38.553 31.5333C38.6589 31.7753 38.7194 32.0324 38.7345 32.2945L38.7496 32.5364C38.8504 32.3802 38.9916 32.2894 39.2335 32.2894C39.4755 32.2894 39.6166 32.3802 39.7175 32.5364L39.7326 32.2945Z" fill="url(#paint10_radial_2_812)"/>
<path opacity="0.75" d="M32.8808 31.5383C33.1177 30.7368 34.3225 30.8376 35.3508 30.9082C36.8782 31.0191 37.9872 31.5635 38.0326 32.3751C38.0326 32.37 38.0326 32.3599 38.0326 32.3549C38.0679 31.498 36.9337 30.9132 35.3508 30.7973C34.3225 30.7217 33.1177 30.6259 32.8808 31.4274C32.8052 31.6895 32.7699 31.992 32.7749 32.3146C32.78 32.0323 32.8153 31.7702 32.8808 31.5383Z" fill="black"/>
<path d="M31.4941 30.8071C31.4991 30.8727 31.5042 30.9483 31.5142 31.0239H32.3157C32.4367 31.0239 32.5325 30.9281 32.5325 30.8071H31.4941Z" fill="#4E5859"/>
<path d="M43.12 30.8027C44.1484 30.727 45.3532 30.6313 45.5901 31.4328C45.827 32.2342 45.6707 33.444 45.1213 34.3463C44.5718 35.2486 42.3942 35.1982 41.6078 34.7193C40.5593 34.0842 40.4685 33.0105 40.4383 32.3603C40.403 31.4983 41.5372 30.9136 43.12 30.8027Z" fill="url(#paint11_linear_2_812)"/>
<path d="M41.6026 34.7141C42.389 35.1929 44.5616 35.2433 45.1161 34.341C45.5799 33.5849 45.7613 32.607 45.6656 31.8408C45.6656 31.8459 45.6706 31.8459 45.6706 31.8509C45.7563 32.6776 45.6051 33.6504 45.1514 34.4519C44.5918 35.4399 42.3789 35.3845 41.5774 34.8602C40.7557 34.3209 40.544 33.5547 40.4785 32.8792C40.5642 33.4942 40.8061 34.2301 41.6026 34.7141Z" fill="url(#paint12_linear_2_812)"/>
<path opacity="0.75" d="M45.5882 31.5383C45.3513 30.7368 44.1464 30.8376 43.1181 30.9082C41.5907 31.0191 40.4817 31.5635 40.4363 32.3751C40.4363 32.37 40.4363 32.3599 40.4363 32.3549C40.401 31.498 41.5352 30.9132 43.1181 30.7973C44.1464 30.7217 45.3513 30.6259 45.5882 31.4274C45.6638 31.6895 45.6991 31.992 45.6941 32.3146C45.6941 32.0323 45.6588 31.7702 45.5882 31.5383Z" fill="black"/>
<path d="M46.9799 30.8071C46.9748 30.8727 46.9698 30.9483 46.9597 31.0239H46.1582C46.0372 31.0239 45.9414 30.9281 45.9414 30.8071H46.9799Z" fill="#4E5859"/>
<path opacity="0.5" d="M43.121 30.8027C44.1494 30.7271 45.3541 30.6314 45.5911 31.4328C45.828 32.2343 45.6717 33.4441 45.1223 34.3464C44.5728 35.2487 42.3951 35.1983 41.6088 34.7194C40.5603 34.0843 40.4695 33.0106 40.4393 32.3603C40.404 31.4984 41.5382 30.9136 43.121 30.8027Z" fill="url(#paint13_radial_2_812)"/>
<path opacity="0.5" d="M35.3531 30.9838C34.3651 30.9133 33.2108 30.8175 32.9839 31.5887C32.7571 32.36 32.9083 33.5193 33.4376 34.3863C33.9669 35.2534 36.0538 35.2029 36.81 34.7442C37.8131 34.1343 37.9038 33.1009 37.929 32.4809C37.9593 31.6542 36.8654 31.0947 35.3531 30.9838Z" fill="url(#paint14_radial_2_812)"/>
<path d="M38.5732 31.5332L38.4068 31.1551C37.9834 30.9635 37.5095 30.6762 36.7383 30.4443C35.8259 30.1671 33.8499 30.1721 32.6451 30.3082C31.768 30.4091 31.5059 30.5099 31.5059 30.5099C31.5059 30.5956 31.5059 30.6964 31.5109 30.8073C33.3861 30.646 35.6545 30.273 38.3262 31.5029C38.3967 31.5382 38.4875 31.5483 38.5782 31.5432C38.5782 31.5382 38.5732 31.5332 38.5732 31.5332Z" fill="url(#paint15_radial_2_812)"/>
<path d="M39.9326 31.5331L40.099 31.1551C40.5224 30.9635 40.9962 30.6762 41.7675 30.4443C42.6799 30.1671 44.6559 30.1721 45.8607 30.3082C46.7378 30.4091 46.9999 30.5099 46.9999 30.5099C47.005 30.5956 47.01 30.6913 47.005 30.8022C45.1298 30.6409 42.8614 30.2679 40.1897 31.4979C40.1191 31.5331 40.0284 31.5432 39.9376 31.5382C39.9326 31.5382 39.9326 31.5331 39.9326 31.5331Z" fill="url(#paint16_radial_2_812)"/>
</g>
</g>
<defs>
<radialGradient id="paint0_radial_2_812" cx="0" cy="0" r="1" gradientUnits="userSpaceOnUse" gradientTransform="translate(37.6621 30.653) scale(9.72986 9.72965)">
<stop stop-color="#FFE030"/>
<stop offset="1" stop-color="#FFB92E"/>
</radialGradient>
<radialGradient id="paint1_radial_2_812" cx="0" cy="0" r="1" gradientUnits="userSpaceOnUse" gradientTransform="translate(37.6621 30.653) scale(7.65492 7.65475)">
<stop stop-color="#FFEA5F"/>
<stop offset="1" stop-color="#FFBC47" stop-opacity="0"/>
</radialGradient>
<radialGradient id="paint2_radial_2_812" cx="0" cy="0" r="1" gradientUnits="userSpaceOnUse" gradientTransform="translate(32.1959 32.2798) rotate(180) scale(8.14118 8.14099)">
<stop stop-color="#7A4400" stop-opacity="0.5"/>
<stop offset="0.5833" stop-color="#894D00" stop-opacity="0.2069"/>
<stop offset="0.995" stop-color="#975500" stop-opacity="0"/>
</radialGradient>
<radialGradient id="paint3_radial_2_812" cx="0" cy="0" r="1" gradientUnits="userSpaceOnUse" gradientTransform="translate(46.3079 32.2812) scale(8.14118 8.14099)">
<stop stop-color="#7A4400" stop-opacity="0.5"/>
<stop offset="0.5833" stop-color="#894D00" stop-opacity="0.2069"/>
<stop offset="0.995" stop-color="#975500" stop-opacity="0"/>
</radialGradient>
<linearGradient id="paint4_linear_2_812" x1="39.2499" y1="37.2538" x2="39.2499" y2="38.4579" gradientUnits="userSpaceOnUse">
<stop offset="0.00132565" stop-color="#3C2200"/>
<stop offset="1" stop-color="#512D00"/>
</linearGradient>
<linearGradient id="paint5_linear_2_812" x1="35.3978" y1="39.6877" x2="35.3978" y2="32.227" gradientUnits="userSpaceOnUse">
<stop stop-color="#8800C7"/>
<stop offset="1" stop-color="#7000A3" stop-opacity="0"/>
</linearGradient>
<linearGradient id="paint6_linear_2_812" x1="43.0654" y1="39.6877" x2="43.0654" y2="32.227" gradientUnits="userSpaceOnUse">
<stop stop-color="#8800C7"/>
<stop offset="1" stop-color="#7000A3" stop-opacity="0"/>
</linearGradient>
<linearGradient id="paint7_linear_2_812" x1="39.2343" y1="33.1302" x2="39.2343" y2="27.5364" gradientUnits="userSpaceOnUse">
<stop stop-color="#242424"/>
<stop offset="1" stop-color="#8EA5A8"/>
</linearGradient>
<linearGradient id="paint8_linear_2_812" x1="32.5836" y1="28.1253" x2="38.2348" y2="37.373" gradientUnits="userSpaceOnUse">
<stop/>
<stop offset="1" stop-opacity="0.5"/>
</linearGradient>
<linearGradient id="paint9_linear_2_812" x1="35.3758" y1="32.9952" x2="35.3758" y2="37.2705" gradientUnits="userSpaceOnUse">
<stop/>
<stop offset="1" stop-color="#8EA5A8"/>
</linearGradient>
<radialGradient id="paint10_radial_2_812" cx="0" cy="0" r="1" gradientUnits="userSpaceOnUse" gradientTransform="translate(39.2233 31.6846) scale(0.952582 0.58212)">
<stop offset="0.0158651" stop-color="#8EA5A8" stop-opacity="0.25"/>
<stop offset="1" stop-color="#8EA5A8" stop-opacity="0"/>
</radialGradient>
<linearGradient id="paint11_linear_2_812" x1="40.0827" y1="27.8751" x2="46.464" y2="37.6365" gradientUnits="userSpaceOnUse">
<stop/>
<stop offset="1" stop-opacity="0.5"/>
</linearGradient>
<linearGradient id="paint12_linear_2_812" x1="43.0887" y1="32.9952" x2="43.0887" y2="37.2705" gradientUnits="userSpaceOnUse">
<stop/>
<stop offset="1" stop-color="#8EA5A8"/>
</linearGradient>
<radialGradient id="paint13_radial_2_812" cx="0" cy="0" r="1" gradientUnits="userSpaceOnUse" gradientTransform="translate(43.155 32.0558) rotate(180) scale(2.78416 0.969297)">
<stop stop-color="white" stop-opacity="0.24"/>
<stop offset="1" stop-color="white" stop-opacity="0"/>
</radialGradient>
<radialGradient id="paint14_radial_2_812" cx="0" cy="0" r="1" gradientUnits="userSpaceOnUse" gradientTransform="translate(35.4789 32.1903) scale(2.66992 0.929446)">
<stop stop-color="white" stop-opacity="0.24"/>
<stop offset="1" stop-color="white" stop-opacity="0"/>
</radialGradient>
<radialGradient id="paint15_radial_2_812" cx="0" cy="0" r="1" gradientUnits="userSpaceOnUse" gradientTransform="translate(34.4684 39.545) scale(15.9138 9.46215)">
<stop offset="0.9647" stop-color="#8EA5A8" stop-opacity="0"/>
<stop offset="1" stop-color="#8EA5A8"/>
</radialGradient>
<radialGradient id="paint16_radial_2_812" cx="0" cy="0" r="1" gradientUnits="userSpaceOnUse" gradientTransform="translate(44.0384 39.545) rotate(180) scale(15.9138 9.46213)">
<stop offset="0.9647" stop-color="#8EA5A8" stop-opacity="0"/>
<stop offset="1" stop-color="#8EA5A8"/>
</radialGradient>
<clipPath id="clip0_2_812">
<rect width="54" height="49" fill="white" transform="translate(0.5)"/>
</clipPath>
<clipPath id="clip1_2_812">
<rect width="54" height="49" fill="white" transform="translate(0.5)"/>
</clipPath>
</defs>
</svg>
