<svg width="16" height="17" viewBox="0 0 16 17" fill="none" xmlns="http://www.w3.org/2000/svg">
<path d="M12.6665 8.13346H8.6665V4.13346C8.6665 3.95665 8.59627 3.78708 8.47124 3.66206C8.34622 3.53703 8.17665 3.4668 7.99984 3.4668C7.82303 3.4668 7.65346 3.53703 7.52843 3.66206C7.40341 3.78708 7.33317 3.95665 7.33317 4.13346V8.13346H3.33317C3.15636 8.13346 2.98679 8.2037 2.86177 8.32873C2.73674 8.45375 2.6665 8.62332 2.6665 8.80013C2.6665 8.97694 2.73674 9.14651 2.86177 9.27153C2.98679 9.39656 3.15636 9.4668 3.33317 9.4668H7.33317V13.4668C7.33317 13.6436 7.40341 13.8132 7.52843 13.9382C7.65346 14.0632 7.82303 14.1335 7.99984 14.1335C8.17665 14.1335 8.34622 14.0632 8.47124 13.9382C8.59627 13.8132 8.6665 13.6436 8.6665 13.4668V9.4668H12.6665C12.8433 9.4668 13.0129 9.39656 13.1379 9.27153C13.2629 9.14651 13.3332 8.97694 13.3332 8.80013C13.3332 8.62332 13.2629 8.45375 13.1379 8.32873C13.0129 8.2037 12.8433 8.13346 12.6665 8.13346Z" fill="white"/>
</svg>
