<svg width="34" height="42" viewBox="0 0 34 42" fill="none" xmlns="http://www.w3.org/2000/svg">
<path d="M8.71397 0.840095C9.50178 0.586244 10.7432 0.247776 11.4594 0.134953C12.1756 0.0221304 13.9661 -0.0342809 15.3985 0.0221304C16.8786 0.106747 18.9078 0.41701 20.0537 0.727272C21.1758 1.03753 23.1572 1.94012 24.4703 2.70167C25.7833 3.46322 27.6693 4.8171 28.6481 5.71968C29.8895 6.87611 30.4624 7.58125 30.5102 8.06075C30.5341 8.45563 30.4386 8.93512 30.2715 9.13256C30.1043 9.33 29.794 9.49924 29.603 9.49924C29.412 9.49924 28.4332 8.73768 27.4544 7.8069C26.4756 6.87611 24.8045 5.60685 23.7541 4.98633C22.7037 4.3658 20.9848 3.57605 19.9344 3.20937C18.3587 2.70167 17.4277 2.58885 14.6823 2.58885C12.2949 2.58885 10.8626 2.72988 9.6689 3.06834C8.76171 3.3504 6.54151 4.39401 4.77489 5.38121C3.00828 6.39661 1.31328 7.21458 1.0268 7.21458C0.716452 7.21458 0.382227 6.96073 0.238988 6.65046C0.119622 6.3402 0.000256265 5.91712 0.000256265 5.74788C-0.0236169 5.55044 1.62363 4.47863 3.62898 3.3504C5.63433 2.25038 7.92615 1.09395 8.71397 0.840095Z" fill="white"/>
<path d="M12.6053 5.60685C12.5814 5.18377 12.7724 4.61966 13.035 4.30939C13.4409 3.8299 13.7273 3.77349 15.7566 3.91451C17.2606 3.99913 18.7168 4.30939 20.0537 4.8171C21.1758 5.24018 22.5127 5.8325 23.0379 6.17097C23.5631 6.48123 24.5896 7.21458 25.3058 7.77869C26.022 8.37101 26.977 9.27359 27.4067 9.78129C27.8364 10.3172 28.1706 10.9377 28.1706 11.1634C28.1706 11.389 28.0512 11.7557 27.8841 11.9249C27.717 12.1224 27.4067 12.2916 27.1679 12.2916C26.9292 12.2916 25.9504 11.5865 25.0194 10.7121C24.0644 9.83771 22.5604 8.68127 21.6771 8.17357C20.7699 7.63766 19.3853 7.01714 18.5736 6.79149C17.738 6.56585 16.0669 6.36841 12.653 6.36841L12.6053 5.60685Z" fill="white"/>
<path d="M12.2233 9.33C12.1756 9.01974 12.3188 8.54024 12.5337 8.28639C12.8202 7.89151 13.2976 7.77869 14.4674 7.77869C15.303 7.77869 16.8309 7.97613 17.8574 8.22998C18.8601 8.45563 20.4596 9.10436 21.3668 9.61206C22.2739 10.148 23.6586 11.1634 24.4225 11.8685C25.3536 12.7429 25.7833 13.3352 25.7833 13.7865C25.7833 14.125 25.6639 14.5763 25.4968 14.7455C25.3297 14.9429 25.0194 15.1122 24.7806 15.1122C24.5419 15.1122 23.7541 14.5481 23.0379 13.8429C22.3217 13.1378 21.2235 12.2634 20.6028 11.8967C19.9582 11.53 18.8601 10.9941 18.1439 10.7403C17.4277 10.4864 15.8043 10.1762 14.5629 10.0633C12.5337 9.92232 12.2949 9.83771 12.2233 9.33Z" fill="white"/>
<path d="M10.6238 12.207C11.2923 11.9531 12.1278 11.6993 12.5337 11.6147C12.9395 11.5583 14.0138 11.5583 14.921 11.6429C15.8282 11.7275 17.2367 12.0095 18.0245 12.3198C18.8123 12.6019 20.1015 13.307 20.8893 13.8429C21.6771 14.407 22.5604 15.1404 22.8708 15.4788C23.1572 15.8173 23.396 16.3532 23.396 16.6635C23.396 16.9737 23.2766 17.3968 23.1095 17.5943C22.9424 17.7635 22.6559 17.9327 22.4411 17.9327C22.2501 17.9327 21.2713 17.284 20.2925 16.5224C19.3137 15.7327 17.8097 14.8301 16.9502 14.5198C16.0908 14.2378 14.8494 13.9839 14.2048 13.9839C13.5602 13.9839 12.5337 14.125 11.9368 14.2942C11.34 14.4634 10.3373 14.8583 9.71664 15.1968C9.09594 15.5353 8.57073 15.9583 8.57073 16.0994C8.57073 16.2404 8.97657 16.7199 9.47791 17.143C9.97925 17.5661 10.8148 18.102 11.34 18.3276C11.8652 18.5251 12.9873 18.8071 13.8467 18.9199C14.7061 19.0328 15.5417 19.2866 15.7088 19.4558C15.8759 19.6251 16.0192 20.0482 15.9953 20.3866C15.9953 20.7533 15.8521 21.12 15.7088 21.2328C15.5417 21.3174 14.8255 21.402 14.1571 21.3738C13.4647 21.3456 12.3904 21.1764 11.7697 20.9789C11.1252 20.8097 9.90763 20.2456 9.02432 19.7097C8.11714 19.202 6.92348 18.243 6.32665 17.5661C5.72982 16.9173 5.22848 16.2122 5.25236 16.0147C5.25236 15.8455 5.61046 15.3378 6.0163 14.9429C6.44602 14.5198 7.40094 13.8429 8.11714 13.4198C8.83333 12.9967 9.97925 12.4608 10.6238 12.207Z" fill="white"/>
<path d="M17.3799 20.8097C17.3561 20.3584 17.4277 19.9071 17.547 19.8225C17.6664 19.7097 18.4065 19.6251 19.1943 19.6251C20.006 19.6251 21.2474 19.8225 21.9636 20.0764C22.6798 20.3302 23.7541 20.8097 24.3509 21.1764C24.9477 21.5149 25.9982 22.3328 26.6905 22.9816C27.3589 23.6021 28.0035 24.3354 28.1229 24.5611C28.2184 24.8149 28.1229 25.2098 27.8125 25.5765C27.5499 25.9149 26.6905 26.6201 25.9027 27.156C25.1148 27.6919 23.8257 28.397 23.0379 28.7073C21.9636 29.1586 21.0087 29.2996 19.2182 29.2996C17.3561 29.2996 16.4728 29.1586 15.2791 28.6791C14.4197 28.3124 13.2021 27.6637 12.5337 27.1842C11.8891 26.7047 11.0535 25.9996 10.6716 25.5765C10.3135 25.1816 10.027 24.5611 10.027 24.1944C10.027 23.8559 10.2419 23.4328 10.5045 23.2918C10.8387 23.0944 11.149 23.1226 11.531 23.3482C11.8175 23.5175 12.653 24.138 13.3692 24.7303C14.0854 25.3226 15.1597 25.9996 15.7566 26.2816C16.4966 26.6201 17.5709 26.7611 19.2182 26.7611C21.1519 26.7893 21.8681 26.6765 22.9185 26.1688C23.6347 25.8303 24.3987 25.4072 24.5896 25.2662C24.9 25.0124 24.8284 24.8431 24.2315 24.1944C23.8257 23.7431 22.9185 23.1226 22.2023 22.8123C21.4861 22.4738 20.3641 22.1354 19.6956 22.0226C19.0511 21.9379 18.2632 21.7969 17.9768 21.7123C17.5709 21.6277 17.4277 21.3738 17.3799 20.8097Z" fill="white"/>
<path d="M7.59193 27.156C7.56806 26.7893 7.68742 26.3662 7.87841 26.1688C8.06939 25.9713 8.37974 25.8303 8.5946 25.8303C8.78559 25.8303 9.54953 26.3944 10.2657 27.0996C10.9819 27.7765 12.2472 28.7355 13.0828 29.215C13.8945 29.6663 15.1836 30.2586 15.9237 30.4843C16.6876 30.7099 18.1439 30.9073 21.0087 30.9073V31.8945C21.0087 32.7407 20.9132 32.9099 20.3641 33.0792C19.9821 33.1638 18.7407 33.1638 17.547 33.0792C16.3056 32.9946 14.7778 32.6561 13.9661 32.3176C13.1783 31.9792 11.9368 31.3586 11.2207 30.8791C10.5045 30.4278 9.40629 29.5535 8.78559 28.9329C8.09327 28.256 7.6158 27.5509 7.59193 27.156Z" fill="white"/>
<path d="M5.3001 30.0612C5.27623 29.6663 5.37172 29.1868 5.51496 28.9894V29.0176C5.6582 28.8201 5.96855 28.6509 6.18341 28.6509C6.39827 28.6227 7.32932 29.3278 8.23651 30.2022C9.14369 31.0484 10.5045 32.1202 11.2207 32.5715C11.9368 33.0228 13.0828 33.6151 13.7273 33.8689C14.4197 34.151 16.1147 34.4331 17.7858 34.5459C20.4118 34.6869 20.6506 34.7715 20.7222 35.2792C20.7699 35.5895 20.6028 36.1536 20.3641 36.5203C19.9344 37.1972 19.8866 37.2254 17.547 37.028C16.1863 36.9434 14.4435 36.6049 13.4886 36.2664C12.5814 35.928 11.0058 35.1664 10.027 34.5459C9.04819 33.9536 7.59193 32.8535 6.80411 32.092C5.84919 31.2176 5.34785 30.5125 5.3001 30.0612Z" fill="white"/>
<path d="M2.81729 32.7689C2.79342 32.4022 2.91279 31.9792 3.10377 31.7817C3.29476 31.5843 3.60511 31.4433 3.81997 31.4433C4.01095 31.4433 4.65553 31.9227 5.25236 32.5151C5.84919 33.1074 6.87573 34.01 7.52031 34.5459C8.18876 35.0818 9.47791 35.8997 10.3851 36.4075C11.2923 36.9152 12.7485 37.5357 13.608 37.8177C14.7778 38.2126 16.043 38.3254 18.7407 38.3254C21.4861 38.3536 22.6798 38.2126 23.8734 37.8459C24.7329 37.5639 26.8815 36.5203 28.6481 35.5049C30.4147 34.5177 32.0381 33.6997 32.2291 33.6997C32.42 33.6997 32.7781 33.9254 33.0169 34.2074C33.2556 34.4613 33.4466 34.8843 33.4466 35.11C33.4466 35.392 32.1097 36.2664 29.794 37.5357C27.7886 38.6357 25.6162 39.7639 24.9477 39.9896C24.3032 40.2434 23.0618 40.5819 22.2023 40.7511C21.3429 40.8922 19.7911 41.0332 18.7407 41.0332C17.6903 41.0332 16.1385 40.8922 15.2791 40.7229C14.4197 40.5819 12.7008 40.046 11.4594 39.5383C10.218 39.0588 8.332 38.0152 7.28158 37.2818C6.23116 36.5203 4.79877 35.3356 4.13032 34.6587C3.3425 33.8971 2.84117 33.1638 2.81729 32.7689Z" fill="white"/>
</svg>
