<svg width="40" height="47" viewBox="0 0 40 47" fill="none" xmlns="http://www.w3.org/2000/svg">
<g clip-path="url(#clip0_2_784)">
<g clip-path="url(#clip1_2_784)">
<path d="M11.8106 3.4515L2.31791 15.867C2.05044 16.2168 1.9167 16.3917 1.82922 16.5864C1.75165 16.759 1.70111 16.9425 1.67937 17.1305C1.65485 17.3425 1.68017 17.5612 1.73081 17.9986L3.99771 37.58C4.17589 39.119 4.26497 39.8885 4.63254 40.4417C4.95586 40.9283 5.42493 41.3 5.9725 41.5036C6.59501 41.7351 7.36453 41.646 8.90357 41.4678L31.3606 38.868C32.8997 38.6898 33.6692 38.6007 34.2224 38.2332C34.7089 37.9098 35.0807 37.4408 35.2843 36.8932C35.5157 36.2707 35.4266 35.5012 35.2485 33.9621L31.8585 4.67951C31.6803 3.14047 31.5912 2.37095 31.2236 1.81779C30.9003 1.33121 30.4313 0.95949 29.8837 0.755889C29.2612 0.524424 28.4916 0.61351 26.9526 0.791682L13.8154 2.31256C13.3566 2.36567 13.1272 2.39223 12.918 2.47002C12.7326 2.53899 12.5595 2.63733 12.4053 2.76129C12.2314 2.90113 12.0911 3.08458 11.8106 3.4515Z" fill="black"/>
<path d="M21.115 7.74121L10.0521 15.4767L5.76815 37.4427C5.57044 38.4565 5.47158 38.9634 5.59335 39.3891C5.70047 39.7635 5.92338 40.0945 6.23014 40.3344C6.57887 40.6073 7.08576 40.7061 8.09954 40.9038L29.4593 45.0696C30.473 45.2673 30.9799 45.3662 31.4056 45.2444C31.7801 45.1373 32.111 44.9143 32.351 44.6076C32.6238 44.2589 32.7226 43.752 32.9204 42.7382L38.4982 14.1378C38.696 13.1241 38.7948 12.6172 38.673 12.1915C38.5659 11.817 38.343 11.4861 38.0362 11.2461C37.6875 10.9733 37.1806 10.8745 36.1668 10.6768L21.115 7.74121Z" fill="#312D2D" stroke="white" stroke-width="1.84425" stroke-linecap="round" stroke-linejoin="round"/>
<path fill-rule="evenodd" clip-rule="evenodd" d="M23.6596 23.8689L18.1064 22.7859C16.8795 22.5466 15.6909 23.3472 15.4516 24.5741L15.0183 26.7961L19.8709 27.7425C20.2799 27.8223 20.5468 28.2185 20.467 28.6275L19.6005 33.0705L18.8785 36.7727L21.06 37.1982L21.8184 33.3095L22.6489 29.0515L23.6596 23.8689ZM25.1407 24.1577L24.2743 28.5999L28.3478 29.3943L28.7809 27.1737C29.0202 25.9468 28.2195 24.7582 26.9926 24.5189L25.1407 24.1577ZM28.059 30.8753L23.9855 30.0809L23.4439 32.8578L27.5174 33.6523L28.059 30.8753ZM27.2285 35.1333L23.1551 34.3389L22.5411 37.487L24.393 37.8482C25.6199 38.0875 26.8085 37.2868 27.0478 36.0599L27.2285 35.1333ZM13.3909 27.2474C13.3944 27.2295 13.3985 27.2118 13.4032 27.1944L13.9706 24.2853C14.3694 22.2404 16.3504 20.906 18.3953 21.3048L27.2814 23.0379C29.3263 23.4367 30.6607 25.4177 30.2619 27.4626L28.5289 36.3487C28.1301 38.3936 26.1491 39.728 24.1042 39.3292L15.218 37.5962C13.1731 37.1974 11.8387 35.2164 12.2375 33.1715L12.5159 31.7443C12.518 31.7264 12.5209 31.7085 12.5244 31.6905C12.5279 31.6725 12.532 31.6549 12.5367 31.6375L13.3824 27.3012C13.3846 27.2833 13.3874 27.2654 13.3909 27.2474ZM13.7186 33.4603L13.8629 32.7202L17.975 33.5222L17.3974 36.4839L15.5068 36.1151C14.2799 35.8758 13.4793 34.6872 13.7186 33.4603ZM14.7294 28.2771L14.1517 31.2392L18.2639 32.0412L18.8416 29.0791L14.7294 28.2771Z" fill="white"/>
</g>
</g>
<defs>
<clipPath id="clip0_2_784">
<rect width="40" height="47" fill="white"/>
</clipPath>
<clipPath id="clip1_2_784">
<rect width="40" height="47" fill="white"/>
</clipPath>
</defs>
</svg>
