<svg width="25" height="25" viewBox="0 0 25 25" fill="none" xmlns="http://www.w3.org/2000/svg">
<g clip-path="url(#clip0_3_561)">
<path d="M4 5.2998H5.55848C6.2542 5.2998 6.60206 5.2998 6.86395 5.48856C7.12584 5.67732 7.23584 6.00733 7.45585 6.66735L8 8.2998" stroke="white" stroke-linecap="round"/>
<path d="M18 18.2998H8.55091C8.40471 18.2998 8.33162 18.2998 8.27616 18.2936C7.68857 18.2278 7.28605 17.6693 7.40945 17.0911C7.42109 17.0365 7.44421 16.9672 7.49044 16.8285V16.8285C7.54177 16.6745 7.56743 16.5975 7.59579 16.5296C7.88607 15.834 8.54277 15.3606 9.29448 15.3052C9.3679 15.2998 9.44906 15.2998 9.61137 15.2998H15" stroke="white" stroke-linecap="round" stroke-linejoin="round"/>
<path d="M14.6787 15.2998H11.6376C10.3584 15.2998 9.71875 15.2998 9.21781 14.9695C8.71687 14.6392 8.46492 14.0513 7.961 12.8755L7.79218 12.4816C6.98269 10.5927 6.57794 9.64833 7.02255 8.97407C7.46715 8.2998 8.49464 8.2998 10.5496 8.2998H15.8305C18.1295 8.2998 19.279 8.2998 19.7126 9.04691C20.1462 9.79402 19.5758 10.7921 18.4352 12.7882L18.1517 13.2844C17.5897 14.2678 17.3088 14.7594 16.8432 15.0296C16.3776 15.2998 15.8113 15.2998 14.6787 15.2998Z" stroke="white" stroke-linecap="round"/>
<circle cx="17.5" cy="20.7998" r="1" fill="white"/>
<circle cx="9.5" cy="20.7998" r="1" fill="white"/>
</g>
<defs>
<clipPath id="clip0_3_561">
<rect width="24" height="24" fill="white" transform="translate(0.5 0.799805)"/>
</clipPath>
</defs>
</svg>
