<svg width="24" height="25" viewBox="0 0 24 25" fill="none" xmlns="http://www.w3.org/2000/svg">
<g clip-path="url(#clip0_3_543)">
<path d="M3.5 5.2998H5.05848C5.7542 5.2998 6.10206 5.2998 6.36395 5.48856C6.62584 5.67732 6.73584 6.00733 6.95585 6.66735L7.5 8.2998" stroke="white" stroke-linecap="round"/>
<path d="M17.5 18.2998H8.05091C7.90471 18.2998 7.83162 18.2998 7.77616 18.2936C7.18857 18.2278 6.78605 17.6693 6.90945 17.0911C6.92109 17.0365 6.94421 16.9672 6.99044 16.8285V16.8285C7.04177 16.6745 7.06743 16.5975 7.09579 16.5296C7.38607 15.834 8.04277 15.3606 8.79448 15.3052C8.8679 15.2998 8.94906 15.2998 9.11137 15.2998H14.5" stroke="white" stroke-linecap="round" stroke-linejoin="round"/>
<path d="M14.1787 15.2998H11.1376C9.85836 15.2998 9.21875 15.2998 8.71781 14.9695C8.21687 14.6392 7.96492 14.0513 7.461 12.8755L7.29218 12.4816C6.48269 10.5927 6.07794 9.64833 6.52255 8.97407C6.96715 8.2998 7.99464 8.2998 10.0496 8.2998H15.3305C17.6295 8.2998 18.779 8.2998 19.2126 9.04691C19.6462 9.79402 19.0758 10.7921 17.9352 12.7882L17.6517 13.2844C17.0897 14.2678 16.8088 14.7594 16.3432 15.0296C15.8776 15.2998 15.3113 15.2998 14.1787 15.2998Z" stroke="white" stroke-linecap="round"/>
<circle cx="17" cy="20.7998" r="1" fill="white"/>
<circle cx="9" cy="20.7998" r="1" fill="white"/>
</g>
<defs>
<clipPath id="clip0_3_543">
<rect width="24" height="24" fill="white" transform="translate(0 0.799805)"/>
</clipPath>
</defs>
</svg>
