<svg width="33" height="33" viewBox="0 0 33 33" fill="none" xmlns="http://www.w3.org/2000/svg">
<g clip-path="url(#clip0_2_851)">
<g clip-path="url(#clip1_2_851)">
<path d="M16.5003 3.24658C9.14032 3.24658 3.16699 9.21991 3.16699 16.58C3.16699 23.94 9.14032 29.9133 16.5003 29.9133C23.8603 29.9133 29.8336 23.94 29.8336 16.58C29.8336 9.21991 23.8603 3.24658 16.5003 3.24658ZM22.687 12.3133C22.487 14.42 21.6203 19.54 21.1803 21.9C20.9936 22.9 20.6203 23.2333 20.2736 23.2733C19.5003 23.34 18.9136 22.7666 18.167 22.2733C16.9936 21.5 16.327 21.02 15.1936 20.2733C13.8736 19.4066 14.727 18.9266 15.487 18.1533C15.687 17.9533 19.1003 14.8466 19.167 14.5666C19.1762 14.5242 19.175 14.4802 19.1634 14.4384C19.1517 14.3965 19.1301 14.3582 19.1003 14.3266C19.0203 14.26 18.9136 14.2866 18.8203 14.3C18.7003 14.3266 16.8336 15.5666 13.1936 18.02C12.6603 18.38 12.1803 18.5666 11.7536 18.5533C11.2736 18.54 10.367 18.2866 9.68699 18.06C8.84699 17.7933 8.19366 17.6466 8.24699 17.18C8.27366 16.94 8.60699 16.7 9.23366 16.4466C13.127 14.7533 15.7136 13.6333 17.007 13.1C20.7136 11.5533 21.4736 11.2866 21.9803 11.2866C22.087 11.2866 22.3403 11.3133 22.5003 11.4466C22.6336 11.5533 22.6736 11.7 22.687 11.8066C22.6736 11.8866 22.7003 12.1266 22.687 12.3133Z" fill="white" fill-opacity="0.9"/>
</g>
</g>
<defs>
<clipPath id="clip0_2_851">
<rect width="32" height="32" fill="white" transform="translate(0.5 0.580078)"/>
</clipPath>
<clipPath id="clip1_2_851">
<rect width="32" height="32" fill="white" transform="translate(0.5 0.580078)"/>
</clipPath>
</defs>
</svg>
