<svg width="33" height="33" viewBox="0 0 33 33" fill="none" xmlns="http://www.w3.org/2000/svg">
<g clip-path="url(#clip0_2_880)">
<g clip-path="url(#clip1_2_880)">
<path fill-rule="evenodd" clip-rule="evenodd" d="M10.3463 27.244V25.8723C10.3494 25.8536 10.3487 25.8344 10.3444 25.816C10.3402 25.7976 10.3323 25.7803 10.3214 25.7651C10.3105 25.75 10.2967 25.7374 10.2809 25.7281C10.2652 25.7187 10.2477 25.7129 10.2297 25.7109C9.14762 25.389 8.14885 24.8154 7.30785 24.033C6.69509 23.4493 6.1849 22.7574 5.80049 21.989C5.25868 20.8789 4.89809 19.6818 4.73369 18.4471C4.52999 16.8982 4.45924 15.3334 4.5223 13.7714C4.53613 13.0431 4.57169 12.3232 4.65071 11.5949C4.77674 10.211 5.11008 8.85653 5.6385 7.58125C6.29099 6.01324 7.4747 4.75372 8.9614 4.04552C9.97415 3.56018 11.0396 3.20586 12.1342 2.99039C13.2076 2.77747 14.2944 2.64678 15.386 2.59937C16.3699 2.56293 17.355 2.57812 18.3375 2.64489C19.7436 2.70705 21.1371 2.95095 22.4862 3.37107C23.4864 3.67301 24.4379 4.12976 25.3092 4.72619C26.1582 5.33653 26.8449 6.16314 27.3046 7.12816C27.845 8.25527 28.2123 9.46455 28.3931 10.7115C28.5105 11.4518 28.5877 12.1985 28.6242 12.948C28.6756 13.8769 28.6697 14.81 28.6361 15.7347C28.6025 16.6595 28.5274 17.5574 28.4188 18.4636C28.2814 19.8237 27.8822 21.1405 27.2453 22.3345C26.4162 23.8449 25.0882 24.9855 23.5115 25.5413C22.4334 25.9366 21.3202 26.218 20.1886 26.3812C19.3608 26.5012 18.5311 26.5881 17.6974 26.6233C17.0593 26.6543 16.4212 26.6461 15.783 26.6357C15.4575 26.6357 15.1336 26.6055 14.8099 26.5753L14.7024 26.5654C14.6671 26.5584 14.6306 26.5625 14.5976 26.5773C14.5645 26.592 14.5364 26.6167 14.5167 26.6481C13.7897 27.5626 13.035 28.4522 12.2744 29.3377C12.1359 29.4992 11.9755 29.6386 11.7983 29.7515C11.682 29.8313 11.5494 29.8815 11.4112 29.8978C11.273 29.9142 11.1331 29.8962 11.0027 29.8455C10.8723 29.7947 10.7552 29.7126 10.6607 29.6057C10.5663 29.4988 10.4971 29.3701 10.4589 29.2301C10.3836 28.9812 10.3463 28.7215 10.3483 28.4605C10.3463 28.0509 10.3463 27.6473 10.3463 27.244ZM9.84291 10.5007C9.82908 10.0476 10.0642 9.71866 10.3487 9.42281C10.7239 9.04641 11.1372 8.7141 11.5814 8.43181C11.784 8.301 12.0248 8.25115 12.2596 8.29145C12.4945 8.33174 12.7075 8.45945 12.8596 8.65111C13.397 9.24272 13.8781 9.88781 14.2958 10.5773C14.5027 10.8874 14.659 11.2314 14.7581 11.5952C14.7978 11.7371 14.8003 11.8876 14.7656 12.031C14.7308 12.1743 14.6601 12.3053 14.5606 12.4103C14.3327 12.6446 14.0898 12.8623 13.8336 13.062C13.7045 13.1697 13.6085 13.3149 13.5576 13.4793C13.5066 13.6437 13.503 13.8202 13.5471 13.9868C13.7053 14.769 14.0639 15.4913 14.5843 16.0764C15.2166 16.8848 16.0314 17.5155 16.955 17.9115C17.1819 18.0337 17.4419 18.0709 17.6918 18.017C17.8287 17.9779 17.9504 17.8946 18.0395 17.7791C18.0801 17.725 18.1217 17.6715 18.1634 17.6179C18.2637 17.4889 18.3645 17.3593 18.4524 17.2205C18.6139 16.9753 18.8603 16.8059 19.1393 16.7483C19.4183 16.6907 19.7078 16.7495 19.946 16.9122C20.6156 17.3191 21.2479 17.79 21.8346 18.319C21.8968 18.3748 21.9602 18.4298 22.0237 18.4849C22.1013 18.5522 22.1794 18.62 22.2554 18.6894C22.419 18.8201 22.5372 19.0033 22.5918 19.2111C22.6464 19.4189 22.6344 19.6397 22.5577 19.8397C22.4356 20.1759 22.2577 20.4869 22.0322 20.7583C21.7519 21.1662 21.3949 21.5098 20.9831 21.7679C20.7863 21.8889 20.5651 21.96 20.3373 21.9755C20.1096 21.9909 19.8815 21.9503 19.6714 21.8568C18.073 21.1829 16.5795 20.2632 15.2402 19.128C13.9302 17.9986 12.7853 16.6742 11.8422 15.1971C11.0486 13.9743 10.4172 12.6442 9.9654 11.2434C9.91729 11.074 9.87772 10.9021 9.84686 10.7283C9.83808 10.6528 9.83676 10.5765 9.84291 10.5007ZM20.2979 9.75908C19.287 8.84185 18.0008 8.32526 16.6635 8.29937C16.6458 8.29937 16.628 8.29921 16.6101 8.29904C16.5384 8.29838 16.466 8.29771 16.3948 8.30765C16.3783 8.30709 16.3619 8.30999 16.3464 8.31616C16.331 8.32234 16.3169 8.33167 16.305 8.3436C16.293 8.35554 16.2834 8.36985 16.2768 8.3857C16.2702 8.40155 16.2667 8.41862 16.2664 8.43592C16.2579 8.47237 16.2632 8.51087 16.2813 8.54329C16.2993 8.57571 16.3287 8.59952 16.3632 8.6097C16.4037 8.62144 16.4456 8.62701 16.4877 8.62625C16.9193 8.6288 17.3493 8.68153 17.7698 8.78349C18.5652 8.96589 19.3096 9.338 19.9452 9.87087C20.5808 10.4037 21.0905 11.083 21.4345 11.8558C21.843 12.7963 22.0455 13.8206 22.0272 14.8536C22.0272 14.9633 22.0588 15.0729 22.1813 15.0605C22.3037 15.0481 22.3334 14.9612 22.3334 14.8412C22.3279 14.3305 22.2816 13.8212 22.1951 13.3185C21.9802 11.936 21.3088 10.6763 20.2979 9.75908ZM20.4773 13.9102C20.4707 13.3354 20.3355 12.7702 20.0827 12.2601C19.8298 11.7499 19.4663 11.3088 19.0213 10.9723C18.502 10.5903 17.8982 10.3532 17.267 10.2834C17.2053 10.275 17.1436 10.2694 17.0814 10.2637C17.0362 10.2596 16.9908 10.2555 16.945 10.2503C16.8363 10.2379 16.7711 10.1903 16.781 10.0744C16.7909 9.95856 16.86 9.91719 16.9786 9.92546C18.7289 10.0372 20.2185 11.0737 20.6768 13.004C20.7607 13.3762 20.8024 13.7574 20.8013 14.1398V14.2432C20.8013 14.3467 20.7381 14.415 20.6413 14.4129C20.6198 14.4121 20.5987 14.4068 20.5793 14.3972C20.5598 14.3876 20.5425 14.374 20.5282 14.3572C20.514 14.3403 20.5032 14.3206 20.4965 14.2993C20.4898 14.2779 20.4873 14.2553 20.4892 14.2329C20.4761 14.1524 20.4765 14.0705 20.4771 13.973L20.4773 13.9102ZM19.2241 13.2355C19.0404 12.1659 18.3707 11.6735 17.4106 11.6053C17.3335 11.5991 17.2505 11.6197 17.2328 11.7315C17.215 11.8432 17.292 11.9156 17.4303 11.9156C17.5145 11.9214 17.5983 11.9325 17.6812 11.9487C18.0521 12.0002 18.3901 12.1986 18.6255 12.5032C18.8495 12.8394 18.9702 13.2393 18.9713 13.6493C18.9752 13.7735 19.0147 13.8562 19.1313 13.8562C19.2478 13.8562 19.2715 13.761 19.2715 13.6493C19.2622 13.5107 19.2464 13.3726 19.2241 13.2355Z" fill="white" fill-opacity="0.9"/>
</g>
</g>
<defs>
<clipPath id="clip0_2_880">
<rect width="32" height="32" fill="white" transform="translate(0.5 0.580078)"/>
</clipPath>
<clipPath id="clip1_2_880">
<rect width="32" height="32" fill="white" transform="translate(0.5 0.580078)"/>
</clipPath>
</defs>
</svg>
