<svg width="33" height="33" viewBox="0 0 33 33" fill="none" xmlns="http://www.w3.org/2000/svg">
<g clip-path="url(#clip0_2_855)">
<g clip-path="url(#clip1_2_855)">
<path d="M3.17234 29.9133L4.97501 23.2893C3.78719 21.2531 3.16313 18.9373 3.16701 16.58C3.16701 9.21591 9.13634 3.24658 16.5003 3.24658C23.8643 3.24658 29.8336 9.21591 29.8336 16.58C29.8336 23.944 23.8643 29.9133 16.5003 29.9133C14.144 29.9171 11.8292 29.2935 9.79367 28.1066L3.17234 29.9133ZM11.6883 10.3239C11.5161 10.3346 11.3479 10.38 11.1936 10.4572C11.049 10.5392 10.917 10.6416 10.8016 10.7613C10.6416 10.912 10.551 11.0426 10.4537 11.1693C9.96089 11.8106 9.69582 12.5978 9.70034 13.4066C9.70301 14.06 9.87367 14.696 10.1403 15.2906C10.6856 16.4933 11.583 17.7666 12.7683 18.9466C13.0536 19.2306 13.3323 19.516 13.6323 19.7813C15.1035 21.0766 16.8566 22.0107 18.7523 22.5093L19.511 22.6253C19.7576 22.6386 20.0043 22.62 20.2523 22.608C20.6406 22.5879 21.0198 22.4828 21.363 22.3C21.5376 22.21 21.708 22.1121 21.8736 22.0066C21.8736 22.0066 21.931 21.9693 22.0403 21.8866C22.2203 21.7533 22.331 21.6586 22.4803 21.5026C22.591 21.388 22.687 21.2533 22.7603 21.1C22.8643 20.8826 22.9683 20.468 23.011 20.1226C23.043 19.8586 23.0336 19.7146 23.0296 19.6253C23.0243 19.4826 22.9056 19.3346 22.7763 19.272L22.0003 18.924C22.0003 18.924 20.8403 18.4186 20.1323 18.096C20.0576 18.0634 19.9777 18.0449 19.8963 18.0413C19.8051 18.0319 19.7129 18.0422 19.626 18.0714C19.539 18.1006 19.4594 18.1481 19.3923 18.2106V18.208C19.3856 18.208 19.2963 18.284 18.3323 19.452C18.277 19.5263 18.2008 19.5825 18.1134 19.6134C18.026 19.6442 17.9314 19.6484 17.8416 19.6253C17.7548 19.6021 17.6696 19.5727 17.587 19.5373C17.4216 19.468 17.3643 19.4413 17.251 19.392L17.2443 19.3893C16.4815 19.0563 15.7753 18.6064 15.151 18.056C14.983 17.9093 14.827 17.7493 14.667 17.5946C14.1424 17.0923 13.6853 16.524 13.307 15.904L13.2283 15.7773C13.1718 15.6922 13.1261 15.6004 13.0923 15.504C13.0416 15.308 13.1736 15.1506 13.1736 15.1506C13.1736 15.1506 13.4976 14.796 13.6483 14.604C13.7738 14.4444 13.8908 14.2784 13.999 14.1066C14.1563 13.8533 14.2056 13.5933 14.123 13.392C13.7496 12.48 13.363 11.572 12.9656 10.6706C12.887 10.4919 12.6536 10.3639 12.4416 10.3386C12.3696 10.3306 12.2976 10.3226 12.2256 10.3172C12.0466 10.3084 11.8671 10.3115 11.6883 10.3239Z" fill="white" fill-opacity="0.9"/>
</g>
</g>
<defs>
<clipPath id="clip0_2_855">
<rect width="32" height="32" fill="white" transform="translate(0.5 0.580078)"/>
</clipPath>
<clipPath id="clip1_2_855">
<rect width="32" height="32" fill="white" transform="translate(0.5 0.580078)"/>
</clipPath>
</defs>
</svg>
