<svg width="100" height="42" viewBox="0 0 100 42" fill="none" xmlns="http://www.w3.org/2000/svg">
<path d="M8.71397 0.840095C9.50178 0.586244 10.7432 0.247776 11.4594 0.134953C12.1756 0.0221304 13.9661 -0.0342809 15.3985 0.0221304C16.8786 0.106747 18.9078 0.41701 20.0537 0.727272C21.1758 1.03753 23.1572 1.94012 24.4703 2.70167C25.7833 3.46322 27.6693 4.8171 28.6481 5.71968C29.8895 6.87611 30.4624 7.58125 30.5102 8.06075C30.5341 8.45563 30.4386 8.93512 30.2715 9.13256C30.1043 9.33 29.794 9.49924 29.603 9.49924C29.412 9.49924 28.4332 8.73768 27.4544 7.8069C26.4756 6.87611 24.8045 5.60685 23.7541 4.98633C22.7037 4.3658 20.9848 3.57605 19.9344 3.20937C18.3587 2.70167 17.4277 2.58885 14.6823 2.58885C12.2949 2.58885 10.8626 2.72988 9.6689 3.06834C8.76171 3.3504 6.54151 4.39401 4.77489 5.38121C3.00828 6.39661 1.31328 7.21458 1.0268 7.21458C0.716452 7.21458 0.382227 6.96073 0.238988 6.65046C0.119622 6.3402 0.000256265 5.91712 0.000256265 5.74788C-0.0236169 5.55044 1.62363 4.47863 3.62898 3.3504C5.63433 2.25038 7.92615 1.09395 8.71397 0.840095Z" fill="white"/>
<path d="M12.6053 5.60685C12.5814 5.18377 12.7724 4.61966 13.035 4.30939C13.4409 3.8299 13.7273 3.77349 15.7566 3.91451C17.2606 3.99913 18.7168 4.30939 20.0537 4.8171C21.1758 5.24018 22.5127 5.8325 23.0379 6.17097C23.5631 6.48123 24.5896 7.21458 25.3058 7.77869C26.022 8.37101 26.977 9.27359 27.4067 9.78129C27.8364 10.3172 28.1706 10.9377 28.1706 11.1634C28.1706 11.389 28.0512 11.7557 27.8841 11.9249C27.717 12.1224 27.4067 12.2916 27.1679 12.2916C26.9292 12.2916 25.9504 11.5865 25.0194 10.7121C24.0644 9.83771 22.5604 8.68127 21.6771 8.17357C20.7699 7.63766 19.3853 7.01714 18.5736 6.79149C17.738 6.56585 16.0669 6.36841 12.653 6.36841L12.6053 5.60685Z" fill="white"/>
<path d="M12.2233 9.33C12.1756 9.01974 12.3188 8.54024 12.5337 8.28639C12.8202 7.89151 13.2976 7.77869 14.4674 7.77869C15.303 7.77869 16.8309 7.97613 17.8574 8.22998C18.8601 8.45563 20.4596 9.10436 21.3668 9.61206C22.2739 10.148 23.6586 11.1634 24.4225 11.8685C25.3536 12.7429 25.7833 13.3352 25.7833 13.7865C25.7833 14.125 25.6639 14.5763 25.4968 14.7455C25.3297 14.9429 25.0194 15.1122 24.7806 15.1122C24.5419 15.1122 23.7541 14.5481 23.0379 13.8429C22.3217 13.1378 21.2235 12.2634 20.6028 11.8967C19.9582 11.53 18.8601 10.9941 18.1439 10.7403C17.4277 10.4864 15.8043 10.1762 14.5629 10.0633C12.5337 9.92232 12.2949 9.83771 12.2233 9.33Z" fill="white"/>
<path d="M10.6238 12.207C11.2923 11.9531 12.1278 11.6993 12.5337 11.6147C12.9395 11.5583 14.0138 11.5583 14.921 11.6429C15.8282 11.7275 17.2367 12.0095 18.0245 12.3198C18.8123 12.6019 20.1015 13.307 20.8893 13.8429C21.6771 14.407 22.5604 15.1404 22.8708 15.4788C23.1572 15.8173 23.396 16.3532 23.396 16.6635C23.396 16.9737 23.2766 17.3968 23.1095 17.5943C22.9424 17.7635 22.6559 17.9327 22.4411 17.9327C22.2501 17.9327 21.2713 17.284 20.2925 16.5224C19.3137 15.7327 17.8097 14.8301 16.9502 14.5198C16.0908 14.2378 14.8494 13.9839 14.2048 13.9839C13.5602 13.9839 12.5337 14.125 11.9368 14.2942C11.34 14.4634 10.3373 14.8583 9.71664 15.1968C9.09594 15.5353 8.57073 15.9583 8.57073 16.0994C8.57073 16.2404 8.97657 16.7199 9.47791 17.143C9.97925 17.5661 10.8148 18.102 11.34 18.3276C11.8652 18.5251 12.9873 18.8071 13.8467 18.9199C14.7061 19.0328 15.5417 19.2866 15.7088 19.4558C15.8759 19.6251 16.0192 20.0482 15.9953 20.3866C15.9953 20.7533 15.8521 21.12 15.7088 21.2328C15.5417 21.3174 14.8255 21.402 14.1571 21.3738C13.4647 21.3456 12.3904 21.1764 11.7697 20.9789C11.1252 20.8097 9.90763 20.2456 9.02432 19.7097C8.11714 19.202 6.92348 18.243 6.32665 17.5661C5.72982 16.9173 5.22848 16.2122 5.25236 16.0147C5.25236 15.8455 5.61046 15.3378 6.0163 14.9429C6.44602 14.5198 7.40094 13.8429 8.11714 13.4198C8.83333 12.9967 9.97925 12.4608 10.6238 12.207Z" fill="white"/>
<path d="M17.3799 20.8097C17.3561 20.3584 17.4277 19.9071 17.547 19.8225C17.6664 19.7097 18.4065 19.6251 19.1943 19.6251C20.006 19.6251 21.2474 19.8225 21.9636 20.0764C22.6798 20.3302 23.7541 20.8097 24.3509 21.1764C24.9477 21.5149 25.9982 22.3328 26.6905 22.9816C27.3589 23.6021 28.0035 24.3354 28.1229 24.5611C28.2184 24.8149 28.1229 25.2098 27.8125 25.5765C27.5499 25.9149 26.6905 26.6201 25.9027 27.156C25.1148 27.6919 23.8257 28.397 23.0379 28.7073C21.9636 29.1586 21.0087 29.2996 19.2182 29.2996C17.3561 29.2996 16.4728 29.1586 15.2791 28.6791C14.4197 28.3124 13.2021 27.6637 12.5337 27.1842C11.8891 26.7047 11.0535 25.9996 10.6716 25.5765C10.3135 25.1816 10.027 24.5611 10.027 24.1944C10.027 23.8559 10.2419 23.4328 10.5045 23.2918C10.8387 23.0944 11.149 23.1226 11.531 23.3482C11.8175 23.5175 12.653 24.138 13.3692 24.7303C14.0854 25.3226 15.1597 25.9996 15.7566 26.2816C16.4966 26.6201 17.5709 26.7611 19.2182 26.7611C21.1519 26.7893 21.8681 26.6765 22.9185 26.1688C23.6347 25.8303 24.3987 25.4072 24.5896 25.2662C24.9 25.0124 24.8284 24.8431 24.2315 24.1944C23.8257 23.7431 22.9185 23.1226 22.2023 22.8123C21.4861 22.4738 20.3641 22.1354 19.6956 22.0226C19.0511 21.9379 18.2632 21.7969 17.9768 21.7123C17.5709 21.6277 17.4277 21.3738 17.3799 20.8097Z" fill="white"/>
<path d="M7.59193 27.156C7.56806 26.7893 7.68742 26.3662 7.87841 26.1688C8.06939 25.9713 8.37974 25.8303 8.5946 25.8303C8.78559 25.8303 9.54953 26.3944 10.2657 27.0996C10.9819 27.7765 12.2472 28.7355 13.0828 29.215C13.8945 29.6663 15.1836 30.2586 15.9237 30.4843C16.6876 30.7099 18.1439 30.9073 21.0087 30.9073V31.8945C21.0087 32.7407 20.9132 32.9099 20.3641 33.0792C19.9821 33.1638 18.7407 33.1638 17.547 33.0792C16.3056 32.9946 14.7778 32.6561 13.9661 32.3176C13.1783 31.9792 11.9368 31.3586 11.2207 30.8791C10.5045 30.4278 9.40629 29.5535 8.78559 28.9329C8.09327 28.256 7.6158 27.5509 7.59193 27.156Z" fill="white"/>
<path d="M5.3001 30.0612C5.27623 29.6663 5.37172 29.1868 5.51496 28.9894V29.0176C5.6582 28.8201 5.96855 28.6509 6.18341 28.6509C6.39827 28.6227 7.32932 29.3278 8.23651 30.2022C9.14369 31.0484 10.5045 32.1202 11.2207 32.5715C11.9368 33.0228 13.0828 33.6151 13.7273 33.8689C14.4197 34.151 16.1147 34.4331 17.7858 34.5459C20.4118 34.6869 20.6506 34.7715 20.7222 35.2792C20.7699 35.5895 20.6028 36.1536 20.3641 36.5203C19.9344 37.1972 19.8866 37.2254 17.547 37.028C16.1863 36.9434 14.4435 36.6049 13.4886 36.2664C12.5814 35.928 11.0058 35.1664 10.027 34.5459C9.04819 33.9536 7.59193 32.8535 6.80411 32.092C5.84919 31.2176 5.34785 30.5125 5.3001 30.0612Z" fill="white"/>
<path d="M2.81729 32.7689C2.79342 32.4022 2.91279 31.9792 3.10377 31.7817C3.29476 31.5843 3.60511 31.4433 3.81997 31.4433C4.01095 31.4433 4.65553 31.9227 5.25236 32.5151C5.84919 33.1074 6.87573 34.01 7.52031 34.5459C8.18876 35.0818 9.47791 35.8997 10.3851 36.4075C11.2923 36.9152 12.7485 37.5357 13.608 37.8177C14.7778 38.2126 16.043 38.3254 18.7407 38.3254C21.4861 38.3536 22.6798 38.2126 23.8734 37.8459C24.7329 37.5639 26.8815 36.5203 28.6481 35.5049C30.4147 34.5177 32.0381 33.6997 32.2291 33.6997C32.42 33.6997 32.7781 33.9254 33.0169 34.2074C33.2556 34.4613 33.4466 34.8843 33.4466 35.11C33.4466 35.392 32.1097 36.2664 29.794 37.5357C27.7886 38.6357 25.6162 39.7639 24.9477 39.9896C24.3032 40.2434 23.0618 40.5819 22.2023 40.7511C21.3429 40.8922 19.7911 41.0332 18.7407 41.0332C17.6903 41.0332 16.1385 40.8922 15.2791 40.7229C14.4197 40.5819 12.7008 40.046 11.4594 39.5383C10.218 39.0588 8.332 38.0152 7.28158 37.2818C6.23116 36.5203 4.79877 35.3356 4.13032 34.6587C3.3425 33.8971 2.84117 33.1638 2.81729 32.7689Z" fill="white"/>
<path d="M49.8059 23.919C48.5118 25.3825 46.844 26.1143 44.8026 26.1143C42.7611 26.1143 41.0842 25.3825 39.7719 23.919C38.4778 22.4554 37.8307 20.4215 37.8307 17.8173V2.74072H40.4827V17.7204C40.4827 19.4638 40.8564 20.8089 41.6037 21.7559C42.3692 22.7029 43.4355 23.1764 44.8026 23.1764C46.1696 23.1764 47.2268 22.7029 47.9741 21.7559C48.7214 20.8089 49.0951 19.4638 49.0951 17.7204V2.74072H51.7744V17.8173C51.7744 20.4215 51.1183 22.4554 49.8059 23.919Z" fill="white"/>
<path d="M58.5833 16.6551V25.63H56.0133V10.1014H58.5287V12.329C59.4036 10.5427 60.7524 9.64948 62.5751 9.64948C64.0879 9.64948 65.2454 10.2198 66.0473 11.3605C66.8676 12.5012 67.2777 13.9755 67.2777 15.7834V25.63H64.7077V16.3C64.7077 13.6957 63.6869 12.3936 61.6455 12.3936C60.6795 12.3936 59.923 12.8025 59.3762 13.6204C58.8476 14.4167 58.5833 15.4283 58.5833 16.6551Z" fill="white"/>
<path d="M73.9084 25.63H71.3657V10.1014H73.9084V25.63ZM71.3111 5.77541C70.9648 5.34496 70.7916 4.82841 70.7916 4.22578C70.7916 3.62315 70.9648 3.10661 71.3111 2.67616C71.6756 2.24571 72.1131 2.03048 72.6234 2.03048C73.1338 2.03048 73.5712 2.24571 73.9358 2.67616C74.3003 3.08509 74.4826 3.60163 74.4826 4.22578C74.4826 4.82841 74.3003 5.34496 73.9358 5.77541C73.5712 6.18434 73.1338 6.3888 72.6234 6.3888C72.1131 6.3888 71.6756 6.18434 71.3111 5.77541Z" fill="white"/>
<path d="M81.726 5.1943V10.1014H84.5694V12.8456H81.726V20.9166C81.726 21.6483 81.8627 22.1864 82.1361 22.5307C82.4277 22.8751 82.9016 23.0473 83.5578 23.0473C83.9405 23.0473 84.2777 23.0042 84.5694 22.9182V25.5009C84.1319 25.6946 83.5487 25.7914 82.8196 25.7914C81.6895 25.7914 80.7964 25.404 80.1402 24.6292C79.484 23.8544 79.1559 22.7675 79.1559 21.3685V12.8456H76.6406V10.1014H77.3514C78.0258 10.1014 78.5271 9.88622 78.8552 9.45577C79.2015 9.0038 79.3746 8.42269 79.3746 7.71244V5.1943H81.726Z" fill="white"/>
<path d="M91.4142 32.1191H88.5981L91.879 23.919L86.2194 10.1014H89.1722L93.2733 20.8197L97.2104 10.1014H99.9718L91.4142 32.1191Z" fill="white"/>
<path d="M57.0786 36.8893C57.0786 37.3047 57.1224 37.6913 57.21 38.049C57.3073 38.3952 57.4436 38.7009 57.6187 38.9663C57.7939 39.2317 58.0129 39.4394 58.2756 39.5894C58.5384 39.7394 58.84 39.8145 59.1807 39.8145C60.2219 39.8145 60.8739 39.1971 61.1367 37.9625L62.3191 38.1355C62.0953 39.0702 61.7011 39.7683 61.1367 40.2299C60.582 40.6914 59.9154 40.9222 59.1369 40.9222C58.6016 40.9337 58.1248 40.8299 57.7063 40.6106C57.2976 40.3799 56.9473 40.0741 56.6553 39.6933C56.3731 39.301 56.159 38.8452 56.013 38.3259C55.8671 37.7951 55.7941 37.2355 55.7941 36.647C55.7941 35.9778 55.8622 35.372 55.9984 34.8296C56.1347 34.2873 56.339 33.8257 56.6115 33.445C56.884 33.0526 57.2295 32.7526 57.6479 32.5449C58.0664 32.3372 58.5578 32.2334 59.1223 32.2334C59.6672 32.2334 60.1441 32.343 60.5528 32.5622C60.9615 32.7815 61.2973 33.0873 61.56 33.4796C61.8325 33.8719 62.0369 34.3335 62.1731 34.8643C62.3094 35.3835 62.3775 35.9489 62.3775 36.5605V36.8893H57.0786ZM61.0929 35.7816C61.054 35.447 60.9859 35.1296 60.8885 34.8296C60.7912 34.5296 60.655 34.27 60.4798 34.0508C60.3046 33.8315 60.0954 33.6584 59.8521 33.5315C59.6088 33.4046 59.3218 33.3411 58.9909 33.3411C58.6989 33.3411 58.4362 33.4103 58.2026 33.5488C57.9788 33.6873 57.7842 33.8719 57.6187 34.1027C57.463 34.3219 57.3365 34.5815 57.2392 34.8816C57.1516 35.17 57.0981 35.47 57.0786 35.7816H61.0929Z" fill="white"/>
<path d="M70.4433 32.0084C70.4238 31.5583 70.3411 31.1718 70.1952 30.8487C70.0492 30.5141 69.8545 30.2429 69.6113 30.0352C69.368 29.816 69.0858 29.6544 68.7646 29.5506C68.4532 29.4467 68.1175 29.3948 67.7574 29.3948C67.5141 29.3948 67.2562 29.4236 66.9837 29.4813C66.7113 29.539 66.4582 29.6371 66.2247 29.7756C66.0008 29.9141 65.8111 30.1044 65.6554 30.3468C65.5094 30.5891 65.4364 30.8891 65.4364 31.2468C65.4364 31.6507 65.5289 31.9795 65.7138 32.2334C65.9084 32.4757 66.1566 32.6776 66.4582 32.8392C66.7696 32.9892 67.1248 33.1161 67.5238 33.22C67.9228 33.3123 68.3267 33.4161 68.7354 33.5315C69.1441 33.6354 69.548 33.7681 69.947 33.9296C70.346 34.0796 70.6963 34.2931 70.998 34.57C71.3094 34.8354 71.5576 35.1816 71.7425 35.6085C71.9371 36.0239 72.0344 36.5547 72.0344 37.2009C72.0344 37.8586 71.9176 38.4298 71.6841 38.9144C71.4505 39.3875 71.144 39.7798 70.7644 40.0914C70.3946 40.4029 69.9713 40.6337 69.4945 40.7837C69.0176 40.9453 68.5311 41.026 68.0347 41.026C67.4217 41.026 66.8426 40.9453 66.2977 40.7837C65.7624 40.6337 65.2904 40.3914 64.8817 40.0568C64.473 39.7106 64.1373 39.2664 63.8745 38.724C63.6215 38.1702 63.4755 37.5009 63.4366 36.7162L64.9255 36.5605C64.9644 37.6797 65.2564 38.4875 65.8013 38.9836C66.3463 39.4683 67.0713 39.7106 67.9764 39.7106C68.3072 39.7106 68.6235 39.6644 68.9252 39.5721C69.2366 39.4798 69.5091 39.3356 69.7426 39.1394C69.9859 38.9433 70.1806 38.6894 70.3265 38.3779C70.4725 38.0663 70.5455 37.6913 70.5455 37.2528C70.5455 36.8259 70.4482 36.4855 70.2535 36.2316C70.0686 35.9662 69.8205 35.7527 69.5091 35.5912C69.2074 35.4181 68.8571 35.2797 68.4581 35.1758C68.0591 35.072 67.6552 34.9681 67.2465 34.8643C66.8378 34.7604 66.4339 34.6392 66.0349 34.5008C65.6359 34.3623 65.2807 34.1719 64.9693 33.9296C64.6676 33.6873 64.4195 33.3815 64.2248 33.0123C64.0399 32.643 63.9475 32.1699 63.9475 31.593C63.9475 30.9929 64.0545 30.4737 64.2686 30.0352C64.4925 29.5967 64.7795 29.2333 65.1299 28.9448C65.4899 28.6563 65.8889 28.4428 66.3269 28.3044C66.7745 28.1544 67.2222 28.0794 67.6698 28.0794C68.205 28.0794 68.7111 28.1544 69.1879 28.3044C69.6648 28.4544 70.0881 28.6852 70.4579 28.9967C70.8277 29.3083 71.1342 29.7063 71.3775 30.191C71.6208 30.6756 71.7814 31.2526 71.8593 31.9218L70.4433 32.0084Z" fill="white"/>
<path d="M73.494 32.4411H74.691V40.7145H73.494V32.4411ZM73.494 28.3909H74.691V30.0179H73.494V28.3909Z" fill="white"/>
<path d="M76.5026 32.4411H77.612V33.4796H77.6412C77.865 33.145 78.1423 32.8565 78.4732 32.6142C78.8138 32.3603 79.1885 32.2334 79.5972 32.2334C79.7821 32.2334 79.9719 32.2622 80.1665 32.3199C80.3709 32.3661 80.5655 32.4468 80.7504 32.5622C80.9353 32.6661 81.1007 32.8103 81.2467 32.9949C81.4024 33.1796 81.5289 33.4046 81.6262 33.67C81.7528 33.4623 81.8987 33.2719 82.0642 33.0988C82.2296 32.9257 82.4048 32.7757 82.5897 32.6488C82.7746 32.5218 82.9643 32.4238 83.159 32.3545C83.3633 32.2738 83.558 32.2334 83.7429 32.2334C84.0251 32.2334 84.3024 32.2795 84.5749 32.3718C84.8474 32.4526 85.0907 32.6084 85.3048 32.8392C85.5189 33.0584 85.6892 33.3642 85.8157 33.7565C85.9519 34.1488 86.0201 34.645 86.0201 35.245V40.7145H84.8231V35.1758C84.8231 34.6566 84.7257 34.2585 84.5311 33.9815C84.3365 33.693 84.0251 33.5488 83.5969 33.5488C83.412 33.5488 83.2174 33.5834 83.013 33.6527C82.8086 33.7104 82.6189 33.8084 82.4437 33.9469C82.2783 34.0854 82.1372 34.2642 82.0204 34.4835C81.9133 34.7027 81.8598 34.9681 81.8598 35.2797V40.7145H80.6628V35.1758C80.6628 34.6566 80.5655 34.2585 80.3709 33.9815C80.1762 33.693 79.8648 33.5488 79.4366 33.5488C79.2517 33.5488 79.0571 33.5834 78.8528 33.6527C78.6484 33.7104 78.4586 33.8084 78.2835 33.9469C78.118 34.0854 77.9769 34.2642 77.8601 34.4835C77.7531 34.7027 77.6996 34.9681 77.6996 35.2797V40.7145H76.5026V32.4411Z" fill="white"/>
</svg>
